<svg xmlns="http://www.w3.org/2000/svg" xmlns:xlink="http://www.w3.org/1999/xlink" width="500" zoomAndPan="magnify" viewBox="0 0 375 374.999991" height="500" preserveAspectRatio="xMidYMid meet" version="1.0"><defs><clipPath id="9e1a445ecc"><path d="M 0 3.515625 L 375 3.515625 L 375 371.765625 L 0 371.765625 Z M 0 3.515625 " clip-rule="nonzero"/></clipPath></defs><g clip-path="url(#9e1a445ecc)"><path fill="#ae9643" d="M 357.121094 359.277344 L 368.953125 359.277344 C 372.289062 359.277344 375 361.984375 375 365.324219 C 375 368.660156 372.289062 371.371094 368.953125 371.371094 L 6.046875 371.371094 C 2.710938 371.371094 0 368.660156 0 365.324219 C 0 361.984375 2.710938 359.277344 6.046875 359.277344 L 17.878906 359.277344 L 17.878906 174.566406 C 9.363281 173.683594 2.710938 166.476562 2.710938 157.726562 C 2.710938 148.980469 9.363281 141.773438 17.878906 140.894531 L 17.878906 75.996094 C 9.363281 75.117188 2.710938 67.910156 2.710938 59.160156 C 2.710938 49.820312 10.296875 42.234375 19.640625 42.234375 L 106.804688 42.234375 C 110.144531 42.234375 112.855469 44.945312 112.855469 48.28125 C 112.855469 51.621094 110.144531 54.332031 106.804688 54.332031 L 19.640625 54.332031 C 16.972656 54.332031 14.808594 56.496094 14.808594 59.160156 C 14.808594 61.828125 16.972656 63.992188 19.640625 63.992188 L 113.984375 63.992188 C 117.320312 63.992188 120.03125 66.699219 120.03125 70.039062 C 120.03125 73.378906 117.320312 76.085938 113.984375 76.085938 L 29.976562 76.085938 L 29.976562 140.800781 L 124.738281 140.800781 C 128.074219 140.800781 130.785156 143.511719 130.785156 146.851562 C 130.785156 150.1875 128.074219 152.898438 124.738281 152.898438 L 19.640625 152.898438 C 16.972656 152.898438 14.808594 155.0625 14.808594 157.726562 C 14.808594 160.394531 16.972656 162.558594 19.640625 162.558594 L 355.359375 162.558594 C 358.027344 162.558594 360.191406 160.394531 360.191406 157.726562 C 360.191406 155.0625 358.027344 152.898438 355.359375 152.898438 L 249.050781 152.898438 C 245.710938 152.898438 243.003906 150.1875 243.003906 146.851562 C 243.003906 143.511719 245.710938 140.800781 249.050781 140.800781 L 345.023438 140.800781 L 345.023438 76.085938 L 262.695312 76.085938 C 259.355469 76.085938 256.644531 73.378906 256.644531 70.039062 C 256.644531 66.699219 259.355469 63.992188 262.695312 63.992188 L 355.359375 63.992188 C 358.027344 63.992188 360.191406 61.828125 360.191406 59.160156 C 360.191406 56.496094 358.027344 54.332031 355.359375 54.332031 L 269.65625 54.332031 C 266.320312 54.332031 263.609375 51.621094 263.609375 48.28125 C 263.609375 44.945312 266.320312 42.234375 269.65625 42.234375 L 355.359375 42.234375 C 364.703125 42.234375 372.289062 49.820312 372.289062 59.160156 C 372.289062 67.910156 365.636719 75.117188 357.121094 75.996094 L 357.121094 140.894531 C 365.636719 141.773438 372.289062 148.980469 372.289062 157.726562 C 372.289062 166.476562 365.636719 173.683594 357.121094 174.566406 Z M 29.976562 359.277344 L 52.523438 359.277344 L 52.523438 223.222656 C 52.523438 213.816406 60.148438 206.195312 69.554688 206.195312 L 173.214844 206.195312 C 182.621094 206.195312 190.246094 213.816406 190.246094 223.222656 L 190.246094 359.277344 L 345.023438 359.277344 L 345.023438 174.65625 L 29.976562 174.65625 Z M 64.621094 359.277344 L 115.335938 359.277344 L 115.335938 218.289062 L 69.554688 218.289062 C 66.832031 218.289062 64.621094 220.5 64.621094 223.222656 Z M 127.433594 359.277344 L 178.148438 359.277344 L 178.148438 223.222656 C 178.148438 220.5 175.9375 218.289062 173.214844 218.289062 L 127.433594 218.289062 Z M 260.402344 201.121094 L 260.402344 242.136719 C 260.402344 245.476562 257.695312 248.1875 254.355469 248.1875 L 213.339844 248.1875 C 210 248.1875 207.292969 245.476562 207.292969 242.136719 L 207.292969 201.121094 C 207.292969 197.78125 210 195.074219 213.339844 195.074219 L 254.355469 195.074219 C 257.695312 195.074219 260.402344 197.78125 260.402344 201.121094 Z M 248.308594 207.171875 L 219.386719 207.171875 L 219.386719 236.089844 L 248.308594 236.089844 Z M 319.980469 260.699219 L 319.980469 301.714844 C 319.980469 305.054688 317.273438 307.765625 313.933594 307.765625 L 272.917969 307.765625 C 269.578125 307.765625 266.867188 305.054688 266.867188 301.714844 L 266.867188 260.699219 C 266.867188 257.359375 269.578125 254.648438 272.917969 254.648438 L 313.933594 254.648438 C 317.273438 254.648438 319.980469 257.359375 319.980469 260.699219 Z M 307.886719 266.746094 L 278.964844 266.746094 L 278.964844 295.667969 L 307.886719 295.667969 Z M 260.402344 260.699219 L 260.402344 301.714844 C 260.402344 305.054688 257.695312 307.765625 254.355469 307.765625 L 213.339844 307.765625 C 210 307.765625 207.292969 305.054688 207.292969 301.714844 L 207.292969 260.699219 C 207.292969 257.359375 210 254.648438 213.339844 254.648438 L 254.355469 254.648438 C 257.695312 254.648438 260.402344 257.359375 260.402344 260.699219 Z M 248.308594 266.746094 L 219.386719 266.746094 L 219.386719 295.667969 L 248.308594 295.667969 Z M 319.980469 201.121094 L 319.980469 242.136719 C 319.980469 245.476562 317.273438 248.1875 313.933594 248.1875 L 272.917969 248.1875 C 269.578125 248.1875 266.867188 245.476562 266.867188 242.136719 L 266.867188 201.121094 C 266.867188 197.78125 269.578125 195.074219 272.917969 195.074219 L 313.933594 195.074219 C 317.273438 195.074219 319.980469 197.78125 319.980469 201.121094 Z M 307.886719 207.171875 L 278.964844 207.171875 L 278.964844 236.089844 L 307.886719 236.089844 Z M 96.976562 280.210938 C 96.976562 276.875 99.6875 274.164062 103.023438 274.164062 C 106.363281 274.164062 109.074219 276.875 109.074219 280.210938 L 109.074219 297.355469 C 109.074219 300.691406 106.363281 303.402344 103.023438 303.402344 C 99.6875 303.402344 96.976562 300.691406 96.976562 297.355469 Z M 134.664062 280.210938 C 134.664062 276.875 137.375 274.164062 140.710938 274.164062 C 144.050781 274.164062 146.761719 276.875 146.761719 280.210938 L 146.761719 297.355469 C 146.761719 300.691406 144.050781 303.402344 140.710938 303.402344 C 137.375 303.402344 134.664062 300.691406 134.664062 297.355469 Z M 132.027344 96.867188 L 110.25 15.722656 L 96.398438 15.722656 C 93.058594 15.722656 90.347656 13.015625 90.347656 9.675781 C 90.347656 6.339844 93.058594 3.628906 96.398438 3.628906 L 114.890625 3.628906 C 117.628906 3.628906 120.023438 5.464844 120.734375 8.109375 L 126.773438 30.617188 L 248.640625 30.617188 C 254.886719 30.617188 259.925781 35.667969 259.925781 41.863281 C 259.925781 43.226562 259.679688 44.554688 259.230469 45.757812 L 245.601562 89.585938 C 244.933594 91.75 244.003906 93.769531 242.855469 95.613281 C 245.945312 95.882812 248.375 98.480469 248.375 101.640625 C 248.375 104.980469 245.664062 107.6875 242.324219 107.6875 L 139.882812 107.6875 C 134 107.6875 128.929688 111.667969 128.929688 116.972656 C 128.929688 121.804688 133.128906 125.535156 138.320312 126.164062 C 141.839844 120.023438 148.460938 115.886719 156.046875 115.886719 C 163.671875 115.886719 170.320312 120.066406 173.824219 126.261719 L 200.324219 126.261719 C 203.828125 120.058594 210.480469 115.878906 218.105469 115.878906 C 229.390625 115.878906 238.519531 125.011719 238.519531 136.300781 C 238.519531 147.578125 229.390625 156.722656 218.105469 156.722656 C 207.53125 156.722656 198.828125 148.667969 197.796875 138.355469 L 176.355469 138.355469 C 175.324219 148.664062 166.625 156.714844 156.046875 156.714844 C 145.347656 156.714844 136.570312 148.480469 135.703125 138.007812 C 124.867188 136.167969 116.835938 127.304688 116.835938 116.972656 C 116.835938 107.851562 123.097656 99.875 132.027344 96.867188 Z M 224.949219 95.015625 C 226.464844 94.566406 227.878906 93.863281 229.140625 92.941406 C 231.417969 91.269531 233.15625 88.878906 234.046875 86.007812 L 234.105469 85.824219 L 224.949219 85.824219 Z M 237.867188 73.726562 L 240.839844 64.164062 L 224.949219 64.164062 L 224.949219 73.726562 Z M 244.601562 52.066406 L 247.507812 42.714844 L 224.949219 42.714844 L 224.949219 52.066406 Z M 212.851562 42.714844 L 196.789062 42.714844 L 196.789062 52.066406 L 212.851562 52.066406 Z M 184.691406 42.714844 L 168.628906 42.714844 L 168.628906 52.066406 L 184.691406 52.066406 Z M 156.53125 42.714844 L 132.3125 42.714844 C 132.3125 42.714844 133.175781 46.511719 134.4375 52.066406 L 156.53125 52.066406 Z M 144.320312 95.589844 L 156.53125 95.589844 L 156.53125 85.824219 L 142.101562 85.824219 C 143.417969 91.605469 144.320312 95.589844 144.320312 95.589844 Z M 168.628906 95.589844 L 184.691406 95.589844 L 184.691406 85.824219 L 168.628906 85.824219 Z M 196.789062 95.589844 L 212.851562 95.589844 L 212.851562 85.824219 L 196.789062 85.824219 Z M 137.183594 64.164062 C 137.898438 67.316406 138.636719 70.566406 139.355469 73.726562 L 156.53125 73.726562 L 156.53125 64.164062 Z M 212.851562 73.726562 L 212.851562 64.164062 L 196.789062 64.164062 L 196.789062 73.726562 Z M 184.691406 64.164062 L 168.628906 64.164062 L 168.628906 73.726562 L 184.691406 73.726562 Z M 156.046875 127.984375 C 151.453125 127.984375 147.730469 131.703125 147.730469 136.300781 C 147.730469 140.894531 151.453125 144.617188 156.046875 144.617188 C 160.636719 144.617188 164.363281 140.894531 164.363281 136.300781 C 164.363281 131.703125 160.636719 127.984375 156.046875 127.984375 Z M 218.105469 127.976562 C 213.511719 127.976562 209.789062 131.699219 209.789062 136.300781 C 209.789062 140.894531 213.511719 144.625 218.105469 144.625 C 222.703125 144.625 226.421875 140.894531 226.421875 136.300781 C 226.421875 131.699219 222.703125 127.976562 218.105469 127.976562 Z M 218.105469 127.976562 " fill-opacity="1" fill-rule="evenodd"/></g><path stroke-linecap="butt" transform="matrix(0.75, 0, 0, 0.75, 127.499996, 167.524619)" fill="none" stroke-linejoin="miter" d="M 0.00000516333 1.998425 L 160.000016 1.998425 " stroke="#ae9643" stroke-width="4" stroke-opacity="1" stroke-miterlimit="4"/></svg>