<svg xmlns="http://www.w3.org/2000/svg" xmlns:xlink="http://www.w3.org/1999/xlink" width="500" zoomAndPan="magnify" viewBox="0 0 375 374.999991" height="500" preserveAspectRatio="xMidYMid meet" version="1.0"><defs><clipPath id="020ce15316"><path d="M 21.09375 228 L 354 228 L 354 375 L 21.09375 375 Z M 21.09375 228 " clip-rule="nonzero"/></clipPath></defs><g clip-path="url(#020ce15316)"><path fill="#ae9643" d="M 297.035156 250.136719 C 316.554688 242.761719 335.453125 238.703125 353.289062 238.070312 C 341.324219 230.226562 325.054688 226.859375 308.410156 229.0625 C 289.6875 231.492188 272.105469 239.964844 257.355469 247.921875 C 244.917969 254.132812 232.789062 262.003906 222.402344 268.882812 C 211.613281 275.992188 200.277344 283.785156 190.097656 292.613281 C 189.273438 293.347656 188.035156 293.425781 187.121094 292.792969 C 185.277344 291.527344 183.378906 290.335938 181.507812 289.109375 C 178.660156 287.3125 175.738281 285.441406 172.90625 283.34375 C 167.074219 278.992188 161.039062 274.726562 154.941406 270.640625 C 142.824219 262.507812 130.160156 254.867188 117.308594 247.921875 C 102.585938 239.964844 85.015625 231.492188 66.292969 229.0625 C 49.605469 226.859375 33.351562 230.226562 21.398438 238.070312 C 39.222656 238.703125 58.109375 242.761719 77.664062 250.136719 C 99.21875 258.296875 118.828125 269.328125 135.15625 279.015625 C 148.085938 286.730469 160.066406 296.851562 171.652344 306.644531 L 174.890625 309.363281 C 175.449219 309.832031 175.789062 310.539062 175.761719 311.285156 C 175.738281 312.019531 175.398438 312.703125 174.816406 313.171875 C 170.550781 316.421875 166.363281 319.710938 162.175781 323 C 157.992188 326.3125 153.804688 329.589844 149.566406 332.851562 C 148.566406 333.636719 147.136719 333.484375 146.277344 332.5625 C 143.429688 329.425781 140.484375 326.160156 138.484375 322.125 C 136.902344 318.953125 136.246094 315.648438 136.550781 312.488281 C 134.96875 313.234375 133.527344 314.5 132.550781 316.128906 C 131.046875 318.621094 130.527344 321.976562 131.136719 325.363281 C 131.96875 330.007812 134.640625 334.398438 137.15625 338.039062 C 137.230469 338.140625 137.320312 338.265625 137.398438 338.355469 C 138.027344 339.140625 139.371094 340.746094 138.535156 342.746094 C 138.003906 344.097656 136.550781 345.011719 135.273438 345.808594 C 134.992188 345.984375 134.714844 346.148438 134.550781 346.273438 L 127.832031 351.410156 C 125.707031 353.066406 123.28125 354.890625 120.472656 356.027344 C 117.019531 357.445312 113.566406 357.496094 110.71875 356.230469 C 107.113281 354.597656 105.113281 351.234375 103.34375 348.261719 C 101.925781 345.882812 100.246094 343.351562 97.980469 342.617188 C 95.527344 341.847656 92.742188 343.328125 91.136719 344.859375 C 87.339844 348.4375 85.914062 354.496094 87.59375 359.925781 C 89.175781 365.035156 93.363281 369.511719 98.816406 371.902344 C 103.824219 374.117188 109.796875 374.648438 116.070312 373.484375 C 128.996094 371.054688 139.6875 361.164062 146.378906 353.308594 C 146.832031 352.75 147.527344 352.433594 148.226562 352.433594 C 148.25 352.433594 148.300781 352.460938 148.324219 352.460938 C 149.085938 352.472656 149.769531 352.839844 150.199219 353.449219 C 153.273438 357.683594 156.433594 362.050781 158.839844 366.882812 C 159.863281 368.90625 160.914062 371.347656 161 374.066406 C 161.039062 374.382812 161.039062 374.699219 161 375.015625 C 162.835938 373.585938 164.277344 371.636719 165.023438 369.425781 C 165.65625 367.578125 165.921875 365.386719 165.808594 362.582031 C 165.707031 359.367188 165.1875 356.6875 164.277344 354.382812 C 163.175781 351.625 161.46875 349.261719 159.570312 347.917969 C 158.988281 347.488281 158.625 346.832031 158.574219 346.097656 C 158.523438 345.363281 158.789062 344.667969 159.332031 344.148438 L 179.21875 325.679688 C 179.484375 325.402344 179.898438 324.949219 180.40625 324.378906 C 183.253906 321.253906 185.300781 319.28125 187.402344 319.179688 C 189.488281 319.203125 191.460938 321.214844 194.460938 324.53125 C 194.964844 325.113281 195.410156 325.605469 195.675781 325.871094 L 202.367188 332.082031 C 202.65625 332.347656 203.414062 333.117188 204.441406 334.144531 C 206.503906 336.242188 212.585938 342.402344 214.292969 343.59375 C 214.902344 343.730469 215.433594 344.125 215.773438 344.695312 C 216.433594 345.78125 216.140625 347.171875 215.105469 347.917969 C 213.21875 349.261719 211.523438 351.625 210.425781 354.382812 C 209.5 356.6875 208.980469 359.394531 208.867188 362.582031 C 208.765625 365.386719 209.019531 367.550781 209.675781 369.425781 C 210.398438 371.636719 211.839844 373.585938 213.6875 375.015625 C 213.664062 374.699219 213.664062 374.382812 213.664062 374.066406 C 213.761719 371.347656 214.824219 368.90625 215.824219 366.882812 C 218.265625 362.050781 221.429688 357.660156 224.476562 353.449219 C 224.90625 352.839844 225.617188 352.472656 226.363281 352.460938 C 227.097656 352.433594 227.828125 352.714844 228.324219 353.308594 C 234.988281 361.164062 245.703125 371.054688 258.632812 373.484375 C 264.882812 374.648438 270.839844 374.117188 275.859375 371.902344 C 281.3125 369.511719 285.527344 365.035156 287.105469 359.925781 C 288.789062 354.496094 287.347656 348.4375 283.550781 344.859375 C 281.921875 343.328125 279.164062 341.847656 276.707031 342.617188 C 274.417969 343.351562 272.773438 345.882812 271.382812 348.199219 C 269.574219 351.234375 267.589844 354.597656 263.984375 356.230469 C 261.113281 357.496094 257.65625 357.445312 254.21875 356.027344 C 251.398438 354.890625 248.980469 353.066406 246.84375 351.410156 L 240.125 346.273438 C 239.949219 346.148438 239.707031 346.007812 239.417969 345.808594 C 238.125 345.011719 236.683594 344.097656 236.128906 342.746094 C 235.332031 340.746094 236.648438 339.140625 237.28125 338.355469 C 237.378906 338.265625 237.46875 338.140625 237.519531 338.039062 C 240.023438 334.398438 242.707031 330.007812 243.554688 325.363281 C 244.160156 321.976562 243.65625 318.621094 242.125 316.128906 C 241.148438 314.5 239.734375 313.234375 238.125 312.488281 C 238.417969 315.648438 237.761719 318.953125 236.203125 322.125 C 234.207031 326.160156 231.269531 329.425781 228.386719 332.5625 C 227.5625 333.484375 226.121094 333.636719 225.097656 332.851562 C 220.871094 329.589844 216.683594 326.3125 212.5 323 C 208.3125 319.710938 204.125 316.421875 199.886719 313.171875 C 199.304688 312.703125 198.9375 312.019531 198.9375 311.285156 C 198.914062 310.539062 199.230469 309.832031 199.785156 309.363281 L 203.023438 306.644531 C 214.609375 296.851562 226.589844 286.730469 239.542969 279.015625 C 255.875 269.328125 275.46875 258.296875 297.035156 250.136719 " fill-opacity="1" fill-rule="nonzero"/></g><path fill="#ae9643" d="M 291.394531 97.480469 C 287.105469 87.648438 280.441406 77.933594 272.496094 70.195312 C 262.351562 60.339844 249.664062 53.445312 235.863281 50.308594 C 234.773438 50.042969 233.992188 49.070312 233.964844 47.941406 C 233.964844 46.804688 234.75 45.832031 235.835938 45.566406 C 250.472656 42.035156 265.96875 43.566406 279 49.550781 C 273.203125 41.933594 265.804688 35.988281 257.507812 32.460938 C 245.867188 27.476562 232.75 26.601562 220.554688 29.980469 C 219.480469 30.296875 218.367188 29.839844 217.796875 28.890625 C 217.242188 27.957031 217.394531 26.742188 218.140625 25.96875 C 223.300781 20.554688 229.992188 16.886719 237.316406 15.28125 C 224.832031 11.652344 211.082031 13.015625 199.59375 19.367188 C 198.9375 19.734375 198.152344 19.757812 197.445312 19.46875 C 196.761719 19.175781 196.257812 18.558594 196.066406 17.835938 C 194.382812 11.449219 191.386719 5.390625 187.351562 0.113281 C 183.277344 5.390625 180.292969 11.449219 178.609375 17.835938 C 178.445312 18.558594 177.925781 19.175781 177.21875 19.46875 C 176.535156 19.757812 175.738281 19.734375 175.082031 19.367188 C 163.605469 13.015625 149.855469 11.652344 137.371094 15.28125 C 144.695312 16.886719 151.398438 20.554688 156.546875 25.96875 C 157.308594 26.765625 157.460938 27.957031 156.878906 28.890625 C 156.308594 29.839844 155.195312 30.296875 154.144531 29.980469 C 141.949219 26.601562 128.820312 27.476562 117.195312 32.460938 C 108.898438 35.988281 101.457031 41.933594 95.679688 49.550781 C 108.71875 43.566406 124.203125 42.035156 138.839844 45.566406 C 139.953125 45.832031 140.710938 46.804688 140.710938 47.941406 C 140.710938 49.070312 139.925781 50.042969 138.8125 50.308594 C 125.011719 53.445312 112.351562 60.339844 102.191406 70.195312 C 94.234375 77.933594 87.570312 87.648438 83.304688 97.480469 C 95.792969 85.804688 110.808594 76.554688 128.074219 69.902344 C 129.1875 69.496094 130.453125 69.929688 131.046875 70.976562 C 131.652344 72.015625 131.402344 73.332031 130.453125 74.089844 C 112.589844 88.421875 99.789062 109.710938 94.96875 132.492188 C 104.558594 118.882812 116.195312 105.523438 130.289062 91.863281 C 131.136719 91.003906 132.476562 90.9375 133.425781 91.648438 C 134.398438 92.367188 134.691406 93.660156 134.132812 94.734375 C 127.707031 107.03125 119.839844 123.410156 116.019531 141.210938 C 112.933594 155.71875 112.933594 169.277344 116.019531 181.5625 C 123.015625 158.324219 133.261719 135.605469 146.554688 113.988281 C 147.226562 112.898438 148.59375 112.507812 149.71875 113.0625 C 150.832031 113.621094 151.375 114.960938 150.90625 116.125 C 142.796875 137.046875 142.164062 160.285156 149.085938 181.613281 C 150.148438 184.902344 151.679688 188.214844 153.703125 191.542969 C 153.144531 166.496094 159.671875 140.132812 172.398438 116.453125 C 172.90625 115.46875 174.003906 114.988281 175.054688 115.203125 C 176.128906 115.453125 176.902344 116.351562 176.976562 117.429688 C 177.292969 121.945312 177.609375 126.472656 177.902344 130.976562 C 178.191406 135.390625 178.507812 139.792969 178.800781 144.195312 C 178.851562 144.878906 178.636719 145.535156 178.167969 146.027344 C 177.710938 146.507812 177.054688 146.800781 176.394531 146.800781 C 176.34375 146.800781 176.320312 146.800781 176.269531 146.800781 C 176.34375 151.847656 176.320312 156.90625 176.292969 161.828125 C 176.269531 167.394531 176.246094 173.136719 176.394531 178.792969 C 176.394531 179.449219 176.144531 180.082031 175.6875 180.5625 C 174.929688 181.347656 173.738281 181.246094 172.601562 181.421875 C 173.550781 191.960938 175.761719 202.964844 179.316406 215.007812 C 179.53125 215.714844 179.40625 216.5 178.976562 217.082031 C 178.558594 217.714844 177.875 218.082031 177.117188 218.132812 C 176.34375 218.171875 175.167969 218.398438 174.03125 218.636719 C 173.625 218.714844 173.207031 218.816406 172.816406 218.878906 C 173.867188 226.558594 176.269531 233.617188 178.800781 241.066406 C 179.796875 243.976562 180.796875 246.898438 181.722656 249.921875 C 182.011719 250.84375 181.722656 251.84375 180.988281 252.476562 L 171.867188 260.382812 L 187.351562 260.851562 L 202.835938 260.382812 L 193.699219 252.476562 C 192.96875 251.84375 192.675781 250.84375 192.96875 249.921875 C 193.902344 246.898438 194.890625 243.976562 195.863281 241.078125 C 198.394531 233.640625 200.808594 226.558594 201.886719 218.878906 C 201.46875 218.816406 201.050781 218.714844 200.632812 218.636719 C 199.519531 218.398438 198.332031 218.171875 197.546875 218.132812 C 196.8125 218.082031 196.140625 217.714844 195.699219 217.082031 C 195.28125 216.5 195.15625 215.714844 195.359375 215.007812 C 198.9375 202.964844 201.152344 191.960938 202.074219 181.421875 C 200.9375 181.246094 199.761719 181.347656 198.988281 180.5625 C 198.546875 180.082031 198.28125 179.449219 198.304688 178.792969 C 198.417969 173.164062 198.394531 167.394531 198.367188 161.839844 C 198.355469 156.90625 198.332031 151.847656 198.417969 146.800781 C 198.367188 146.800781 198.332031 146.800781 198.304688 146.800781 C 197.621094 146.800781 196.988281 146.507812 196.523438 146.027344 C 196.066406 145.535156 195.8125 144.878906 195.863281 144.195312 C 196.179688 139.742188 196.484375 135.265625 196.789062 130.8125 C 197.089844 126.359375 197.394531 121.90625 197.722656 117.429688 C 197.785156 116.351562 198.570312 115.453125 199.632812 115.203125 C 200.683594 114.988281 201.785156 115.46875 202.289062 116.453125 C 215.027344 140.132812 221.554688 166.496094 220.988281 191.542969 C 223.011719 188.214844 224.542969 184.902344 225.617188 181.613281 C 232.535156 160.285156 231.878906 137.046875 223.792969 116.125 C 223.328125 114.960938 223.84375 113.621094 224.984375 113.0625 C 226.097656 112.507812 227.464844 112.898438 228.121094 113.988281 C 241.441406 135.605469 251.6875 158.324219 258.644531 181.5625 C 261.742188 169.277344 261.769531 155.71875 258.644531 141.210938 C 254.851562 123.410156 246.980469 107.03125 240.53125 94.734375 C 240 93.660156 240.289062 92.367188 241.25 91.648438 C 242.210938 90.9375 243.527344 91.003906 244.402344 91.863281 C 258.480469 105.5 270.117188 118.882812 279.707031 132.492188 C 274.914062 109.710938 262.109375 88.410156 244.210938 74.089844 C 243.289062 73.332031 243.023438 72.015625 243.628906 70.976562 C 244.238281 69.929688 245.476562 69.496094 246.628906 69.902344 C 263.882812 76.554688 278.910156 85.804688 291.394531 97.480469 " fill-opacity="1" fill-rule="nonzero"/><path stroke-linecap="butt" transform="matrix(0.75, 0, 0, 0.75, 145.662389, 76.491449)" fill="none" stroke-linejoin="miter" d="M 0.00223195 2.000985 L 95.898072 2.000985 " stroke="#ae9643" stroke-width="4" stroke-opacity="1" stroke-miterlimit="4"/></svg>