<svg xmlns="http://www.w3.org/2000/svg" xmlns:xlink="http://www.w3.org/1999/xlink" width="500" zoomAndPan="magnify" viewBox="0 0 375 374.999991" height="500" preserveAspectRatio="xMidYMid meet" version="1.0"><defs><clipPath id="1a63e540c6"><path d="M 0 56.15625 L 375 56.15625 L 375 318 L 0 318 Z M 0 56.15625 " clip-rule="nonzero"/></clipPath></defs><g clip-path="url(#1a63e540c6)"><path fill="#ae9643" d="M 374.304688 269.332031 C 373.925781 264.886719 374.964844 260.4375 374.246094 256.011719 C 371.5 254.136719 366.898438 253.621094 365.46875 250.527344 C 364.914062 245.917969 365.359375 197.207031 365.277344 195.941406 C 365.199219 194.675781 364.757812 194.046875 363.261719 192.488281 C 362.539062 191.738281 357.582031 186.960938 357.582031 186.960938 C 357.582031 186.960938 357.925781 186.359375 359.117188 179.167969 C 359.664062 175.859375 359.308594 176.761719 354.894531 173 C 352.078125 170.605469 348.328125 168.996094 347.15625 165.324219 C 344.269531 154.957031 343.15625 144.371094 341.730469 133.722656 C 344.25 134.285156 354.007812 123.777344 348.90625 123.902344 C 344.457031 126.859375 337.621094 127.660156 334.507812 122.359375 C 331.402344 116.894531 332.527344 110.03125 335.226562 104.605469 C 335.609375 103.460938 337.382812 102.449219 336.726562 101.1875 C 331.972656 99.550781 327.230469 105.683594 326.167969 109.996094 C 323.859375 117.753906 325.402344 126.566406 331.824219 131.902344 C 334.429688 133.15625 334.34375 134.378906 333.882812 136.933594 C 332.1875 145.8125 330.039062 154.613281 328.460938 163.527344 C 328.34375 164.144531 328.203125 164.863281 328.945312 165.269531 C 329.425781 165.527344 329.785156 165.066406 330.136719 163.789062 C 331.808594 156.242188 335.277344 137.535156 335.625 135.582031 C 335.882812 134.121094 336.316406 133.21875 337.207031 134.265625 C 337.886719 142.9375 337.585938 151.722656 337.722656 160.429688 C 337.738281 161.714844 337.566406 162.695312 336.058594 162.9375 C 333.660156 163.898438 331.578125 165.847656 328.785156 165.699219 C 328.578125 165.679688 328.234375 165.851562 328.160156 166.023438 C 327.816406 166.824219 327.054688 166.996094 326.378906 167.230469 C 322.304688 168.640625 318.742188 171.085938 314.820312 172.792969 C 311.75 174.1875 315.078125 182.28125 314.464844 185.46875 C 314.199219 187.378906 309.4375 189.964844 307.867188 191.027344 C 307.644531 195.203125 307.511719 199.707031 307.730469 204.027344 C 306.984375 219.113281 308.050781 234.148438 308.148438 249.210938 C 307.769531 252.097656 301.199219 250.992188 301.699219 254.09375 C 301.457031 258.03125 301.074219 261.972656 301.011719 265.910156 C 300.367188 267.886719 301.996094 269.289062 303.339844 270.414062 C 304.140625 271.019531 304.34375 271.78125 304.386719 272.777344 C 304.753906 280.546875 303.648438 303.777344 303.898438 310.621094 C 304.003906 313.613281 304.21875 313.082031 301.308594 313.402344 C 293.917969 313.089844 288.277344 313.777344 279.132812 313.554688 C 277.652344 313.519531 277.484375 313.207031 277.464844 311.703125 C 277.460938 296.210938 277.386719 279.859375 277.667969 264.453125 C 279.972656 264.253906 284.371094 264.695312 286.746094 264.492188 C 287.613281 264.417969 288.269531 263.699219 288.28125 262.832031 C 288.441406 250.101562 290.320312 251.34375 279.253906 251.570312 C 283.167969 247.214844 286.261719 241.714844 287.648438 235.742188 C 295.644531 203.769531 280.511719 179.898438 253.324219 163.671875 C 246.742188 160.066406 239.910156 157.003906 233.019531 154.25 C 222.261719 149.652344 212.21875 142.164062 205.167969 132.8125 C 200.917969 127.417969 198.074219 120.847656 196.492188 114.183594 C 195.546875 111.292969 203.4375 113.964844 211.308594 105.511719 C 214.097656 102.515625 216.574219 99.519531 217.765625 95.734375 C 218.121094 94.613281 215.515625 95.847656 214.738281 96.164062 C 200.542969 101.878906 178.644531 100.304688 182.457031 78.269531 C 184.558594 68.226562 187.738281 63.039062 195.3125 57.996094 C 195.96875 57.554688 195.691406 56.527344 194.902344 56.484375 C 189.617188 56.183594 176.863281 56.933594 169.339844 69.671875 C 162.859375 80.628906 164.132812 106.558594 190.320312 112.457031 C 192.585938 112.976562 188.628906 118.34375 188.304688 120.125 C 183.882812 130.058594 175.976562 146.195312 141.308594 161.859375 C 130.003906 166.972656 118.855469 172.867188 110.34375 181.789062 C 96.671875 196.128906 87.007812 225.804688 106.015625 251.691406 C 107.496094 253.707031 99.683594 250.65625 99.148438 253.601562 C 99.226562 256.371094 98.957031 258.210938 99.355469 261.671875 C 99.515625 263.078125 100.652344 264.179688 102.070312 264.265625 C 105.371094 264.46875 109.335938 264.535156 109.335938 264.535156 C 108.601562 279.828125 109.140625 313.347656 109.207031 314.316406 C 108.3125 314.3125 86.953125 314.242188 78.285156 314.109375 C 76.832031 314.085938 76.761719 313.742188 76.742188 312.308594 C 76.613281 300.082031 76.257812 288.007812 76.554688 275.902344 C 76.566406 275.105469 76.773438 274.476562 77.363281 273.929688 C 78.394531 272.667969 80.753906 271.535156 80.152344 269.632812 C 79.238281 265.214844 79.722656 260.597656 79.261719 256.101562 C 79.34375 252.65625 75.398438 252.449219 72.980469 251.238281 C 70.972656 249.46875 71.015625 189.128906 70.363281 188.910156 C 68.589844 187.871094 65.554688 187.058594 65.332031 184.746094 C 64.871094 182.59375 66.125 171.707031 64.441406 170.601562 C 60.476562 167.542969 55.808594 163.703125 51.730469 160.792969 C 49.609375 159.453125 44.175781 137.738281 41.984375 129.28125 C 45.570312 128.292969 51.625 121.394531 48.148438 121.867188 C 33.328125 123.875 30.203125 108.023438 41.050781 100.710938 C 32.542969 98.285156 25.9375 106.808594 25.308594 113.460938 C 24.730469 119.613281 27.722656 124.765625 33.058594 127.492188 C 34 127.949219 35.375 127.875 35.824219 128.90625 C 34.546875 138.265625 31.050781 158.914062 30.449219 159.417969 C 29.4375 160.257812 13.910156 167.558594 13.84375 171.453125 C 13.847656 174.105469 13.210938 185.832031 13.359375 186.5 C 11.867188 187.804688 10.027344 188.859375 8.550781 190.15625 C 7.910156 190.652344 7.757812 191.339844 7.773438 192.097656 C 7.804688 193.359375 7.242188 247.675781 6.976562 250.261719 C 6.839844 251.632812 6.4375 252.640625 5.464844 252.78125 C 3.550781 253.585938 -0.0234375 254.375 0.121094 257.019531 C 0.828125 269.609375 0.503906 272.035156 1.972656 273.746094 C 3.113281 274.5625 3.609375 275.722656 3.609375 277.15625 C 3.949219 287.761719 3.949219 311.339844 4.183594 317.015625 C 4.25 318.796875 6.023438 317.386719 6.011719 316.941406 C 5.894531 311.996094 5.398438 287.769531 5.410156 277.308594 C 5.003906 275.03125 8.15625 274.054688 9.828125 273.070312 C 18.484375 270.527344 36.40625 264.847656 40.367188 263.238281 C 40.835938 279.398438 41.265625 313.648438 41.652344 316.023438 C 41.78125 316.824219 42.832031 316.195312 42.824219 315.449219 C 42.746094 306.402344 42.351562 275.988281 42.136719 265.289062 C 41.699219 262.164062 44.097656 263.183594 46.195312 264.007812 C 52.351562 266.328125 71.847656 272.863281 73.355469 273.65625 C 74.503906 274.261719 75.007812 274.863281 75.164062 275.710938 C 75.550781 277.78125 75.292969 305.15625 75.375 312.652344 C 75.40625 315.710938 75.363281 315.195312 77.308594 315.257812 C 86.976562 315.582031 110.460938 315.570312 110.460938 315.363281 C 110.039062 299.0625 110.074219 282.945312 110.71875 266.640625 C 110.78125 263.933594 111.03125 264.308594 113.230469 264.226562 C 115.621094 264.222656 222.136719 264.453125 273.058594 264.449219 C 273.996094 264.589844 275.949219 264.558594 275.949219 266.027344 C 276.054688 271.214844 275.992188 303.320312 275.753906 314.183594 C 275.722656 314.894531 276.535156 315.710938 277.191406 315.492188 C 285.304688 315.890625 300.507812 315.28125 303.726562 315.148438 C 305.777344 315.0625 306.167969 314.476562 306.066406 312.792969 C 305.964844 310.925781 306.042969 283.046875 306.460938 271.304688 C 306.460938 271.304688 325.230469 262.863281 334.644531 259.011719 C 335.535156 258.769531 336.84375 257.625 336.84375 259.449219 C 336.84375 266.089844 336.84375 299.589844 336.652344 314.453125 C 336.644531 315.066406 337.855469 314.902344 337.886719 314.199219 C 338.371094 303.992188 338.371094 273.070312 338.367188 259.425781 C 338.367188 259.054688 338.175781 258.601562 338.863281 258.269531 C 349.273438 263.667969 359.589844 269.65625 369.625 275.652344 C 370.570312 288.71875 369.171875 302.515625 369.988281 315.816406 C 369.882812 318.609375 372.058594 317.523438 371.824219 315.433594 C 371.445312 302.914062 371.40625 290.398438 371.757812 277.875 C 371.339844 274.527344 374.644531 272.597656 374.304688 269.332031 Z M 42.148438 136.347656 C 43.5625 143.910156 46.667969 150.804688 48.246094 158.335938 C 45.746094 156.476562 41.996094 156.082031 40.78125 153.492188 C 40.675781 145.542969 39.917969 137.582031 40.117188 129.671875 C 41.609375 131.191406 41.308594 134.304688 42.148438 136.347656 Z M 30.328125 123.714844 C 23.136719 117.230469 28.207031 103.140625 37.148438 101.710938 C 28.945312 111.152344 32.828125 124.035156 46.164062 124.160156 C 43.222656 128.808594 34.304688 127.910156 30.328125 123.714844 Z M 32.894531 153.863281 C 34.320312 145.636719 35.785156 137.425781 37.671875 129.285156 C 37.820312 129.285156 37.964844 129.28125 38.113281 129.28125 C 38.742188 137.28125 39.121094 145.296875 39.433594 153.324219 C 38.886719 155.714844 35.296875 156.21875 33.527344 157.691406 C 31.75 158.144531 32.949219 154.867188 32.894531 153.863281 Z M 15.511719 173.640625 C 15.699219 172.191406 16.074219 170.90625 16.816406 169.972656 C 23.128906 165.378906 29.953125 161.621094 36.714844 157.679688 C 40.046875 155.714844 40.042969 155.707031 43.359375 157.476562 C 46.417969 159.105469 59.429688 168.101562 61.230469 169.410156 C 63.042969 170.734375 63.765625 171.847656 63.976562 174.617188 C 64.125 176.5625 64.011719 179.320312 63.859375 183.558594 C 63.878906 185.132812 62.375 183.925781 61.746094 183.417969 C 56.488281 179.316406 50.9375 175.648438 45.203125 172.246094 C 40.289062 169.328125 38.894531 169.070312 34.21875 172.632812 C 29.34375 176.1875 16.035156 184.941406 15.285156 185.007812 C 15.238281 184.492188 15.132812 176.6875 15.511719 173.640625 Z M 8.414062 248.671875 C 8.421875 248.160156 8.425781 210.820312 9.617188 192.722656 C 10.496094 190.257812 31.652344 177.136719 36.148438 173.511719 C 37.0625 172.84375 37.964844 172.128906 39.203125 172.019531 C 39.441406 192.96875 40.3125 239.367188 40.3125 239.367188 C 39.070312 240.164062 37.1875 240.867188 37.210938 239.847656 C 37.296875 236.800781 37.015625 215.359375 37.121094 205.582031 C 36.683594 203.414062 28.667969 197.335938 26.070312 195.109375 C 24.085938 193.402344 23.664062 193.25 21.488281 196.332031 C 20.179688 198.195312 11.011719 211.417969 10.976562 214.199219 C 11.304688 226.480469 11.234375 236.855469 10.949219 249.113281 C 10.914062 250.183594 10.164062 250.828125 9.003906 250.832031 C 8.144531 250.648438 8.480469 249.347656 8.414062 248.671875 Z M 35.957031 238.875 C 35.957031 240.558594 35.824219 240.65625 34.355469 241.203125 C 27.5 243.765625 20.617188 246.25 13.847656 249.027344 C 13.125 249.550781 12.453125 249.242188 12.4375 247.542969 C 12.386719 241.441406 12.34375 217.570312 12.535156 215.023438 C 12.828125 211.023438 21.90625 198.679688 22.601562 197.679688 C 23.96875 195.730469 24.480469 195.773438 25.714844 196.960938 C 27.015625 198.207031 35.921875 204.457031 35.953125 206.566406 C 36.03125 212.804688 35.886719 235.492188 35.957031 238.875 Z M 39.300781 261.640625 C 27.066406 266.070312 16.90625 268.820312 4.851562 273.660156 C 2.726562 272.851562 1.875 271.964844 4.316406 271.03125 C 9.65625 268.988281 35.828125 259.886719 38.882812 258.921875 C 40.835938 258.308594 41.726562 261.121094 39.300781 261.640625 Z M 40.796875 255.28125 C 40.675781 256.527344 40.207031 257.464844 38.980469 257.613281 C 27.371094 260.910156 16.550781 264.824219 4.515625 269.65625 C 3.453125 270.085938 2.285156 269.34375 2.230469 268.195312 C 2.125 265.800781 2.117188 263.117188 2.105469 261.050781 C 2.070312 255.78125 2.210938 255.679688 4.171875 254.898438 C 17.515625 249.585938 27.679688 245.507812 39.636719 241.429688 C 40.191406 241.394531 40.441406 241.996094 40.535156 242.863281 C 40.738281 244.703125 41.007812 253.203125 40.796875 255.28125 Z M 41.613281 238.960938 C 41.621094 236 40.570312 175.980469 40.675781 173.039062 C 40.710938 172.085938 41.332031 171.679688 42.125 172.285156 C 49.222656 176.433594 56.027344 181.097656 62.59375 186.066406 C 64.707031 188.34375 69.34375 188.835938 69.269531 192.519531 C 68.964844 211.730469 69.625 231.273438 70.371094 250.253906 C 68.53125 249.929688 67.800781 249.316406 67.519531 248.425781 C 67.207031 247.4375 67.164062 217.109375 66.941406 210.359375 C 66.925781 209.941406 66.753906 208.78125 66.535156 208.425781 C 61.957031 200.855469 59.640625 197.015625 57.957031 194.523438 C 56.550781 192.433594 55.394531 192.5625 52.351562 196.125 C 50.886719 197.832031 43.855469 204.902344 43.535156 209.089844 C 43.253906 212.8125 43.710938 239.816406 43.5 239.828125 C 42.789062 239.859375 41.613281 239.5625 41.613281 238.960938 Z M 66.175781 248.425781 C 60.222656 247.460938 54.949219 244.101562 49.132812 242.449219 C 47.902344 242 46.238281 241.179688 44.988281 240.78125 C 44.476562 240.621094 44.5625 213.40625 44.785156 209.636719 C 44.875 208.070312 47.71875 202.800781 54.769531 195.664062 C 55.339844 195.171875 56.15625 193.875 56.828125 195 C 60.007812 200.332031 66.132812 208.4375 65.953125 210.710938 C 66.191406 219.964844 66.25 242.734375 66.175781 248.425781 Z M 42.394531 255.25 C 42.351562 254.316406 41.75 245.808594 42.136719 243.296875 C 42.257812 242.460938 42.53125 241.933594 43.035156 241.972656 C 53.945312 246.289062 65.039062 250.109375 76.09375 254.136719 C 76.917969 254.402344 77.371094 255.542969 77.628906 257.03125 C 78.121094 259.875 78.433594 267.894531 78.390625 268.828125 C 78.351562 269.527344 78.007812 269.894531 76.855469 269.351562 C 70.945312 267.304688 49.070312 259.695312 44.066406 257.839844 C 42.757812 257.417969 42.449219 256.398438 42.394531 255.25 Z M 67.628906 270.042969 C 59.761719 267.371094 51.933594 264.570312 44.113281 261.777344 C 42.976562 261.585938 42.050781 260.285156 43.449219 259.683594 C 54.75 263.183594 65.71875 267.628906 77.003906 271.214844 C 79.355469 274.53125 68.816406 270.269531 67.628906 270.042969 Z M 175.917969 103.726562 C 168.441406 97.253906 166.398438 87.550781 167.78125 77.699219 C 169.523438 65.304688 182.882812 57.53125 194.613281 57.53125 C 184.796875 62.824219 179.566406 76.210938 180.234375 84 C 181.671875 100.746094 200.628906 103.042969 214.726562 97.738281 C 212.015625 107.148438 194.464844 119.785156 175.917969 103.726562 Z M 106.117188 248.769531 C 86.652344 218.28125 103.730469 188.078125 116.699219 178.355469 C 129.4375 168.800781 138.128906 166.484375 147.796875 161.042969 C 164.1875 151.808594 178.90625 143.871094 186.53125 127.761719 C 203.578125 89.503906 179.398438 135.003906 236.117188 157.335938 C 257.828125 165.527344 279.621094 180.585938 286.25 203.523438 C 290.878906 219.542969 286.984375 238.359375 280.078125 248.253906 C 276.753906 253.007812 277.097656 252.398438 269.164062 252.234375 C 228.347656 251.359375 123.21875 252.375 115.429688 252.09375 C 110.324219 251.902344 109.191406 253.578125 106.117188 248.769531 Z M 101.574219 262.648438 C 100.050781 262.152344 100.347656 258.824219 100.5 256.242188 C 100.585938 254.820312 101.765625 253.714844 103.183594 253.71875 C 124.410156 253.773438 264.441406 253.664062 281.992188 253.3125 C 287.558594 253.210938 287.152344 252.878906 287.21875 256.089844 C 287.34375 261.628906 286.925781 262.71875 284.792969 262.753906 C 257.4375 263.867188 136.488281 263.238281 101.574219 262.648438 Z M 362.902344 194.289062 C 363.632812 195.074219 363.730469 196.085938 363.707031 197.132812 C 363.675781 198.011719 363.652344 241.179688 363.460938 249.980469 C 363.183594 250.070312 362.949219 249.875 362.933594 249.636719 C 362.324219 245.289062 362.390625 216.988281 362.300781 215.109375 C 362.109375 211.140625 355.625 199.808594 354.460938 198.292969 C 353.554688 197.113281 352.515625 196.371094 351.316406 197.015625 C 347.621094 199.015625 344.371094 201.71875 340.964844 204.15625 C 340.417969 204.605469 340.164062 206.074219 340.042969 207.855469 C 339.859375 210.667969 339.527344 229.902344 339.703125 236.492188 C 339.410156 239.472656 337.8125 237.113281 337.8125 237.113281 C 337.8125 230.332031 338.125 190.867188 337.835938 178.148438 C 337.820312 177.277344 337.390625 174.90625 338.914062 175.917969 C 339.796875 176.429688 356.613281 187.65625 362.902344 194.289062 Z M 360.984375 247.613281 C 360.984375 248.246094 360.648438 248.519531 360.058594 248.347656 C 354.117188 245.765625 348.433594 242.578125 342.589844 239.773438 C 341.910156 239.15625 341.234375 238.15625 341.195312 236.84375 C 340.980469 230.191406 341.628906 211.75 341.929688 207.867188 C 342.167969 204.90625 345.054688 203.351562 351.546875 199.121094 C 352.03125 198.691406 352.71875 199.164062 353.5 200.136719 C 355.648438 202.792969 360.617188 213.46875 360.726562 215.101562 C 361.003906 219.203125 361.082031 240.945312 360.984375 247.613281 Z M 342.09375 148.730469 C 342.910156 153.992188 344.21875 159.203125 345.160156 164.445312 C 344.699219 165.582031 341.03125 161.875 340.046875 161.472656 C 339.472656 161.058594 339.316406 160.425781 339.316406 159.722656 C 339.496094 151.027344 338.726562 142.753906 339.347656 134.015625 C 341.417969 138.761719 341.007812 143.75 342.09375 148.730469 Z M 331.90625 129.722656 C 324.714844 124.207031 324.675781 107.214844 333.292969 103.554688 C 328.71875 113.148438 329.867188 129.605469 344.027344 127.921875 C 347.082031 127.210938 345.476562 128.925781 344.183594 130.058594 C 343.125 130.925781 337.457031 133.980469 331.90625 129.722656 Z M 316.847656 173.652344 C 323.910156 170.144531 327.542969 168.261719 335.320312 164.660156 C 338.199219 163.328125 339.9375 163.453125 340.804688 164.070312 C 347.160156 168.621094 353.050781 173.597656 356.960938 177.335938 C 358.042969 178.363281 358.300781 179.015625 357.289062 183.976562 C 357.105469 184.890625 356.042969 185.320312 355.273438 184.78125 C 350.445312 181.402344 340.808594 174.839844 338.542969 173.746094 C 337.210938 173.09375 335.933594 172.878906 334.738281 173.648438 C 329.503906 177 322.957031 180.824219 318.394531 183.398438 C 317.59375 183.847656 316.59375 183.410156 316.359375 182.527344 C 314.402344 175.003906 314.347656 174.894531 316.847656 173.652344 Z M 309.414062 193.496094 C 309.433594 192.667969 309.871094 192.28125 310.539062 191.765625 C 313.359375 189.609375 329.320312 179.460938 335.640625 175.453125 C 336.179688 175.519531 336.289062 175.765625 336.300781 175.992188 C 336.8125 183.128906 336.703125 190.285156 336.8125 197.433594 C 336.53125 210.5 336.886719 223.621094 336.859375 236.632812 C 336.757812 237.695312 335.46875 238.808594 334.484375 238.089844 C 334.097656 234.539062 333.484375 205.257812 333.292969 205.085938 C 326.660156 198.949219 324.800781 196.621094 323.460938 195.804688 C 323.011719 195.527344 322.667969 195.523438 322.300781 195.8125 C 321.207031 196.660156 311.6875 210.765625 311.535156 213.523438 C 311.570312 221.425781 312.039062 242.757812 312.339844 247.914062 C 312.339844 247.914062 311.34375 248.675781 309.785156 248.996094 C 308.425781 230.554688 309.078125 211.964844 309.414062 193.496094 Z M 332.585938 239.085938 C 329 240.722656 313.371094 247.179688 313.371094 247.203125 C 312.929688 242.777344 312.558594 218.65625 313.632812 212.957031 C 313.933594 211.398438 320.566406 201.558594 321.660156 199.921875 C 322.558594 198.574219 323.160156 198.488281 324.675781 199.675781 C 325.984375 200.707031 327.988281 202.691406 331.445312 205.636719 C 331.972656 206.078125 332.242188 206.523438 332.25 207.296875 C 332.066406 217.890625 333.015625 228.558594 332.585938 239.085938 Z M 336.191406 256.257812 C 326.175781 260.230469 315.402344 265.148438 304.746094 269.550781 C 303.757812 269.367188 303.292969 268.058594 304.292969 267.722656 C 308.648438 265.984375 328.621094 257.003906 336.171875 253.707031 C 335.496094 254.007812 336.707031 255.957031 336.191406 256.257812 Z M 369.152344 273.078125 C 364.234375 270.414062 359.425781 267.550781 354.636719 264.652344 C 349.734375 262.152344 344.914062 259.503906 340.011719 256.96875 C 338.648438 256.285156 338.101562 255.273438 338.527344 253.707031 C 349.734375 259.707031 360.734375 265.929688 371.726562 272.199219 C 370.503906 273.734375 370.472656 273.796875 369.152344 273.078125 Z M 372.46875 269.335938 C 372.371094 271.835938 366.925781 267.207031 365.523438 266.855469 C 356.851562 261.59375 347.929688 256.949219 339.183594 251.894531 C 338.324219 251.355469 337.242188 251.730469 334.21875 252.921875 C 325.777344 256.25 309.378906 263.621094 303.542969 266.007812 C 302.0625 266.617188 302.910156 263.738281 302.675781 262.433594 C 302.40625 260.167969 303.328125 257.667969 303.15625 255.109375 C 303.121094 253.375 305.261719 253.253906 306.441406 252.578125 C 316.183594 247.566406 326.039062 242.898438 336.492188 239.53125 C 337.308594 239.21875 338.066406 239.15625 338.832031 239.65625 C 349.566406 245.386719 360.59375 250.558594 371.285156 256.355469 C 374.882812 257.992188 371.628906 265.84375 372.46875 269.335938 Z M 215.285156 270.613281 C 206.496094 270.613281 206.789062 270.007812 206.789062 272.339844 C 206.765625 285.882812 206.667969 289.121094 206.5625 300.027344 C 206.472656 309.664062 206.054688 310.09375 209.167969 310.128906 C 217.414062 310.214844 217.011719 310.882812 217.109375 307.726562 C 217.390625 298.367188 217.296875 281.824219 217.101562 273.476562 C 217.023438 270.203125 217.328125 270.613281 215.285156 270.613281 Z M 215.777344 274.835938 C 215.632812 288.039062 215.359375 293.125 215.253906 306.820312 C 215.242188 308.472656 215.867188 308.242188 210.824219 308.152344 C 208.839844 308.113281 208.382812 308.667969 208.375 305.664062 C 208.367188 302.214844 208.34375 281.988281 208.265625 275.320312 C 208.226562 272.339844 208.355469 272.550781 214.339844 272.480469 C 215.664062 272.464844 215.800781 272.339844 215.777344 274.835938 Z M 340.957031 271.234375 C 342.308594 275.964844 348.933594 273.648438 348.691406 269.410156 C 348.628906 261.980469 338.585938 264.8125 340.957031 271.234375 Z M 347.589844 270.332031 C 347.019531 272.070312 345.269531 273.054688 343.671875 272.53125 C 342.074219 272.007812 341.246094 270.171875 341.8125 268.441406 C 342.382812 266.703125 344.140625 265.71875 345.734375 266.242188 C 347.328125 266.765625 348.160156 268.59375 347.589844 270.332031 Z M 350.636719 274.550781 C 350.496094 279.808594 356.992188 279.945312 358.210938 275.378906 C 359.34375 269.472656 350.832031 267.253906 350.636719 274.550781 Z M 352.0625 275.722656 C 351.117188 271.585938 356.015625 269.351562 357.3125 273.582031 C 357.828125 276.449219 352.652344 279.445312 352.0625 275.722656 Z M 104.523438 207.597656 C 107.457031 186.582031 129.492188 170.71875 148.335938 164.027344 C 151.011719 165.089844 147.089844 166.34375 145.988281 166.714844 C 142.972656 167.789062 140.148438 169.355469 137.273438 170.746094 C 123.769531 179.222656 108.15625 190.773438 106.136719 207.738281 C 105.804688 209.894531 104.277344 209.199219 104.523438 207.597656 Z M 106.414062 215.625 C 106.210938 219.71875 104.554688 214.875 104.527344 213.425781 C 104.496094 212.929688 105.128906 212.640625 105.535156 212.921875 C 106.402344 213.445312 106.351562 214.84375 106.414062 215.625 Z M 238.074219 271.707031 C 229.285156 271.707031 229.582031 271.105469 229.582031 273.433594 C 229.558594 286.976562 229.457031 290.210938 229.355469 301.121094 C 229.261719 310.761719 228.84375 311.1875 231.964844 311.222656 C 240.207031 311.308594 239.800781 311.976562 239.898438 308.828125 C 240.183594 299.460938 240.089844 282.917969 239.894531 274.570312 C 239.820312 271.308594 240.121094 271.707031 238.074219 271.707031 Z M 238.566406 275.925781 C 238.425781 289.132812 238.148438 294.214844 238.042969 307.914062 C 238.03125 309.570312 238.660156 309.335938 233.617188 309.25 C 231.632812 309.214844 231.171875 309.765625 231.167969 306.757812 C 231.160156 303.304688 231.136719 283.082031 231.0625 276.414062 C 231.023438 273.433594 231.148438 273.648438 237.128906 273.574219 C 238.457031 273.5625 238.589844 273.433594 238.566406 275.925781 Z M 260.011719 271.707031 C 251.222656 271.707031 251.519531 271.105469 251.519531 273.433594 C 251.496094 286.976562 251.394531 290.210938 251.292969 301.121094 C 251.199219 310.761719 250.78125 311.1875 253.894531 311.222656 C 262.136719 311.308594 261.738281 311.976562 261.835938 308.828125 C 262.121094 299.460938 262.027344 282.917969 261.832031 274.570312 C 261.75 271.308594 262.0625 271.707031 260.011719 271.707031 Z M 260.503906 275.925781 C 260.363281 289.132812 260.085938 294.214844 259.980469 307.914062 C 259.96875 309.570312 260.597656 309.335938 255.554688 309.25 C 253.570312 309.214844 253.109375 309.765625 253.101562 306.757812 C 253.097656 303.304688 253.074219 283.082031 252.992188 276.414062 C 252.960938 273.433594 253.085938 273.648438 259.066406 273.574219 C 260.394531 273.5625 260.527344 273.433594 260.503906 275.925781 Z M 194.199219 271.707031 C 185.410156 271.707031 185.707031 271.105469 185.699219 273.433594 C 185.675781 286.976562 185.582031 290.210938 185.480469 301.121094 C 185.386719 310.761719 184.96875 311.1875 188.082031 311.222656 C 196.324219 311.308594 195.921875 311.976562 196.019531 308.828125 C 196.308594 299.460938 196.207031 282.917969 196.019531 274.570312 C 195.9375 271.308594 196.25 271.707031 194.199219 271.707031 Z M 194.6875 275.925781 C 194.542969 289.132812 194.273438 294.214844 194.164062 307.914062 C 194.144531 309.570312 194.773438 309.335938 189.734375 309.25 C 187.75 309.214844 187.285156 309.765625 187.277344 306.757812 C 187.273438 303.304688 187.253906 283.082031 187.175781 276.414062 C 187.136719 273.433594 187.261719 273.648438 193.25 273.574219 C 194.582031 273.5625 194.714844 273.433594 194.6875 275.925781 Z M 172.261719 271.707031 C 163.472656 271.707031 163.769531 271.105469 163.761719 273.433594 C 163.738281 286.976562 163.644531 290.210938 163.542969 301.121094 C 163.449219 310.761719 163.03125 311.1875 166.144531 311.222656 C 174.386719 311.308594 173.988281 311.976562 174.082031 308.828125 C 174.371094 299.460938 174.277344 282.917969 174.082031 274.570312 C 174 271.308594 174.3125 271.707031 172.261719 271.707031 Z M 172.753906 275.925781 C 172.613281 289.132812 172.335938 294.214844 172.230469 307.914062 C 172.21875 309.570312 172.847656 309.335938 167.804688 309.25 C 165.820312 309.214844 165.355469 309.765625 165.355469 306.757812 C 165.347656 303.304688 165.324219 283.082031 165.242188 276.414062 C 165.207031 273.433594 165.335938 273.648438 171.316406 273.574219 C 172.644531 273.5625 172.777344 273.433594 172.753906 275.925781 Z M 150.324219 271.707031 C 141.535156 271.707031 141.832031 271.105469 141.832031 273.433594 C 141.808594 286.976562 141.707031 290.210938 141.605469 301.121094 C 141.511719 310.761719 141.09375 311.1875 144.207031 311.222656 C 152.449219 311.308594 152.050781 311.976562 152.148438 308.828125 C 152.433594 299.460938 152.339844 282.917969 152.144531 274.570312 C 152.0625 271.308594 152.375 271.707031 150.324219 271.707031 Z M 150.816406 275.925781 C 150.675781 289.132812 150.398438 294.214844 150.292969 307.914062 C 150.28125 309.570312 150.910156 309.335938 145.867188 309.25 C 143.882812 309.214844 143.421875 309.765625 143.417969 306.757812 C 143.410156 303.304688 143.386719 283.082031 143.304688 276.414062 C 143.269531 273.433594 143.398438 273.648438 149.378906 273.574219 C 150.710938 273.5625 150.847656 273.433594 150.816406 275.925781 Z M 128.386719 271.707031 C 119.597656 271.707031 119.894531 271.105469 119.894531 273.433594 C 119.871094 286.976562 119.773438 290.210938 119.667969 301.121094 C 119.574219 310.761719 119.15625 311.1875 122.277344 311.222656 C 130.519531 311.308594 130.113281 311.976562 130.210938 308.828125 C 130.496094 299.460938 130.402344 282.917969 130.207031 274.570312 C 130.132812 271.308594 130.4375 271.707031 128.386719 271.707031 Z M 128.878906 275.925781 C 128.738281 289.132812 128.460938 294.214844 128.355469 307.914062 C 128.34375 309.570312 128.972656 309.335938 123.929688 309.25 C 121.945312 309.214844 121.484375 309.765625 121.480469 306.757812 C 121.472656 303.304688 121.449219 283.082031 121.375 276.414062 C 121.335938 273.433594 121.460938 273.648438 127.441406 273.574219 C 128.769531 273.5625 128.910156 273.433594 128.878906 275.925781 Z M 360.378906 281.234375 C 361.726562 285.960938 368.355469 283.648438 368.109375 279.410156 C 368.046875 271.984375 358.007812 274.816406 360.378906 281.234375 Z M 367.011719 280.332031 C 366.4375 282.070312 364.6875 283.050781 363.089844 282.53125 C 361.496094 282.007812 360.664062 280.171875 361.230469 278.4375 C 361.800781 276.699219 363.558594 275.71875 365.15625 276.242188 C 366.746094 276.769531 367.582031 278.59375 367.011719 280.332031 Z M 314.125 272.90625 C 308.457031 268.109375 304.046875 277.5625 310.464844 279.957031 C 314.929688 282.019531 317.496094 275.492188 314.125 272.90625 Z M 313.222656 278.746094 C 311.785156 279.613281 309.851562 279.046875 308.90625 277.488281 C 307.960938 275.921875 308.359375 273.949219 309.796875 273.078125 C 311.234375 272.210938 313.160156 272.777344 314.105469 274.34375 C 315.054688 275.910156 314.652344 277.875 313.222656 278.746094 Z M 319.296875 274.785156 C 323.191406 278.324219 327.527344 273.484375 324.867188 269.582031 C 321.125 264.871094 313.890625 269.878906 319.296875 274.785156 Z M 321.113281 274.472656 C 317.363281 272.496094 318.859375 267.3125 322.914062 269.089844 C 325.425781 270.570312 324.320312 276.449219 321.113281 274.472656 Z M 334.375 264.71875 C 328.707031 259.921875 324.296875 269.375 330.714844 271.769531 C 335.179688 273.828125 337.746094 267.296875 334.375 264.71875 Z M 333.472656 270.554688 C 332.035156 271.417969 330.097656 270.855469 329.152344 269.292969 C 328.207031 267.726562 328.605469 265.757812 330.042969 264.886719 C 331.480469 264.019531 333.410156 264.582031 334.355469 266.148438 C 335.300781 267.714844 334.902344 269.679688 333.472656 270.554688 Z M 45.378906 274.988281 C 47.554688 279.398438 53.660156 275.933594 52.65625 271.804688 C 51.261719 264.511719 41.898438 269.089844 45.378906 274.988281 Z M 51.742188 272.90625 C 51.496094 274.71875 49.949219 276 48.285156 275.773438 C 46.621094 275.546875 45.472656 273.886719 45.71875 272.082031 C 45.964844 270.269531 47.515625 268.988281 49.179688 269.214844 C 50.839844 269.449219 51.992188 271.09375 51.742188 272.90625 Z M 55.5 276.511719 C 56.304688 281.707031 62.722656 280.667969 63.105469 275.964844 C 63.152344 269.953125 54.382812 269.300781 55.5 276.511719 Z M 57.109375 277.414062 C 55.433594 273.511719 59.855469 270.429688 61.886719 274.359375 C 62.914062 277.089844 58.363281 280.964844 57.109375 277.414062 Z M 66.277344 281.339844 C 68.453125 285.746094 74.558594 282.285156 73.558594 278.15625 C 72.164062 270.859375 62.796875 275.449219 66.277344 281.339844 Z M 72.640625 279.257812 C 72.394531 281.066406 70.847656 282.351562 69.183594 282.125 C 67.519531 281.898438 66.371094 280.238281 66.617188 278.433594 C 66.863281 276.621094 68.417969 275.335938 70.082031 275.566406 C 71.738281 275.796875 72.886719 277.445312 72.640625 279.257812 Z M 10.570312 282.285156 C 14.707031 284.9375 18.148438 278.820312 15.164062 275.804688 C 10.199219 270.277344 4.539062 279.035156 10.570312 282.285156 Z M 13.460938 281.46875 C 11.914062 282.128906 10.085938 281.300781 9.359375 279.628906 C 8.636719 277.949219 9.304688 276.050781 10.847656 275.386719 C 12.386719 274.730469 14.222656 275.546875 14.941406 277.230469 C 15.667969 278.90625 15.003906 280.796875 13.460938 281.46875 Z M 20.019531 278.371094 C 23.394531 282.40625 28.355469 278.210938 26.25 273.988281 C 23.195312 268.804688 15.339844 272.769531 20.019531 278.371094 Z M 21.863281 278.308594 C 18.417969 275.835938 20.609375 270.910156 24.382812 273.230469 C 26.667969 275.035156 24.769531 280.710938 21.863281 278.308594 Z M 31.746094 276.945312 C 35.886719 279.601562 39.324219 273.484375 36.339844 270.46875 C 31.382812 264.933594 25.71875 273.699219 31.746094 276.945312 Z M 34.636719 276.125 C 33.089844 276.785156 31.261719 275.957031 30.535156 274.289062 C 29.8125 272.605469 30.480469 270.707031 32.023438 270.042969 C 33.5625 269.386719 35.398438 270.203125 36.117188 271.886719 C 36.84375 273.5625 36.179688 275.453125 34.636719 276.125 Z M 34.636719 276.125 " fill-opacity="1" fill-rule="nonzero"/></g></svg>