<?xml version="1.0" encoding="UTF-8"?>
<svg id="Layer_1" data-name="Layer 1" xmlns="http://www.w3.org/2000/svg" viewBox="0 0 123 50.49">
  <defs>
    <style>
      .cls-1 {
        fill: #af9744;
      }

      .cls-1, .cls-2 {
        stroke-width: 0px;
      }

      .cls-2 {
        fill: #fff;
      }
    </style>
  </defs>
  <path class="cls-1" d="m13.95,36.94h0c3.01-2.48,2.8-5.9,2.8-5.9V8.46c.05-3.69-2.51-5.76-2.79-5.98v-.02s0,0-.01.01c0,0-.01-.01-.01-.01v.02c-.28.22-2.84,2.29-2.79,5.98v22.58s-.21,3.42,2.8,5.9"/>
  <path class="cls-2" d="m9.74,41.53c1.93,1.62,4.19,2.29,4.21,2.29h0s2.28-.67,4.21-2.29c0,0,1.79-1.42,2.88-3.26,0,0,1.97-2.68,1.97-7.18V15.02c0-.35-.28-.63-.63-.63h-.11c-.35,0-.63.28-.63.63v16.07s.33,3.93-2.52,7.53c-.78.99-2.35,2.7-5.17,3.75-2.82-1.05-4.39-2.77-5.17-3.75-2.85-3.6-2.51-7.53-2.51-7.53V15.02c0-.35-.28-.63-.63-.63h-.11c-.35,0-.63.28-.63.63v16.07c0,4.5,1.97,7.18,1.97,7.18,1.09,1.84,2.88,3.26,2.88,3.26"/>
  <path class="cls-2" d="m13.95,40.4h0s1.56-.77,2.75-2.04c1.19-1.28,2.97-3.67,2.97-7.27V9.09c0-.35-.28-.63-.63-.63h-.05c-.35,0-.63.28-.63.63v21.96s.35,4.77-4.41,7.87c-4.76-3.09-4.41-7.87-4.41-7.87V9.09c0-.35-.28-.63-.63-.63h-.05c-.35,0-.63.28-.63.63v22c0,3.61,1.78,6,2.97,7.27,1.19,1.28,2.74,2.04,2.75,2.04"/>
  <path class="cls-2" d="m25.66,20.33h-.17c-.35,0-.63.28-.63.63v10.13s.43,4.04-2.07,8.19c-.2.33-1.38,2.26-3.23,3.72-1.85,1.46-3.43,2.24-5.61,2.82-2.18-.58-3.76-1.36-5.61-2.82-1.85-1.46-3.03-3.39-3.23-3.72-2.5-4.15-2.07-8.19-2.07-8.19v-10.13c0-.35-.28-.63-.63-.63h-.17c-.35,0-.63.28-.63.63v10.13c0,2.95.36,4.53,1.05,6.42.7,1.89,2.1,4.42,4.99,6.77,2.89,2.35,6.3,3.04,6.31,3.04,0,0,3.42-.69,6.31-3.04,2.89-2.35,4.29-4.88,4.99-6.77.69-1.89,1.05-3.47,1.05-6.42v-10.13c0-.35-.28-.63-.63-.63"/>
  <path class="cls-2" d="m35.37,27.53c-.22-.23-.33-.51-.33-.83V9.21c0-.32.11-.6.34-.83.23-.23.52-.35.84-.35s.59.12.83.35c.22.22.34.5.34.83v16.32h8.66c.33,0,.6.11.83.34.23.23.35.51.35.83s-.12.61-.35.84c-.22.22-.5.34-.83.34h-9.82c-.32,0-.6-.11-.83-.33,0,0-.01,0-.01-.01m59,.34c1.96,0,3.67-.71,5.06-2.1,1.39-1.39,2.1-3.09,2.1-5.06v-11.52c0-.33-.11-.6-.34-.83h0c-.23-.23-.51-.34-.82-.34s-.59.12-.81.34c-.22.22-.34.5-.34.83v11.52c0,1.35-.47,2.47-1.43,3.42-.96.96-2.08,1.43-3.42,1.43s-2.47-.47-3.42-1.42c-.96-.95-1.43-2.07-1.43-3.42v-11.52c0-.33-.11-.6-.34-.83-.22-.22-.5-.34-.81-.34s-.6.11-.83.34c-.22.22-.34.5-.34.83v11.52c0,1.96.71,3.67,2.1,5.06,1.39,1.39,3.09,2.1,5.06,2.1m26.83-19.47c-.23-.23-.52-.35-.84-.35s-.59.12-.83.35c-.22.22-.35.5-.35.83v14.05l-12.08-14.78c-.3-.39-.65-.47-.89-.47-.14,0-.28.03-.43.08-.51.18-.79.57-.79,1.12v17.47c0,.32.12.61.35.83.22.23.51.35.83.35s.61-.12.83-.35c.23-.22.35-.51.35-.83v-14.04l12.09,14.77s.06.06.09.09c.22.23.5.35.83.35s.61-.12.83-.35c.22-.21.34-.49.35-.8h0V9.22c0-.33-.11-.6-.34-.83m-36.79,9.53v.05c0,2.71-.98,5.07-2.9,6.99-1.92,1.92-4.28,2.9-6.99,2.9h-4.45c-.31,0-.59-.12-.8-.34-.22-.22-.33-.49-.33-.81V9.18c0-.31.11-.58.33-.8.21-.22.49-.34.8-.34h4.45c2.71,0,5.07.98,6.99,2.9,1.93,1.92,2.9,4.28,2.9,6.99m-2.27,0c0-2.09-.75-3.9-2.24-5.39-1.49-1.48-3.3-2.23-5.39-2.23h-3.31v15.28h3.31c2.09,0,3.9-.75,5.39-2.23,1.49-1.49,2.24-3.3,2.24-5.39v-.05Zm-16.35,9.6c-.59.59-1.59.39-1.91-.38l-1.32-3.16h-9.66l-1.32,3.16c-.32.77-1.32.97-1.91.38-.33-.33-.43-.84-.25-1.28l7.26-17.52c.19-.47.62-.7,1.05-.7s.86.23,1.05.7l7.26,17.52c.18.44.08.94-.25,1.28m-4.19-5.89l-3.87-9.32-3.87,9.32h7.73Z"/>
  <path class="cls-2" d="m35.54,33.84h-.36s-.07.01-.1.04c-.02.03-.04.06-.04.1v3.29c0,.16-.01.29-.04.39-.03.1-.07.17-.13.22-.06.05-.15.08-.25.1-.1.02-.24.02-.4.02h-.16c-.09,0-.13.04-.13.1v.32s0,.06.02.08c.01.02.05.03.1.04.05.01.12.02.2.02.08,0,.14,0,.16,0,.29,0,.52-.04.7-.1.18-.07.31-.19.41-.36.06-.12.11-.25.12-.4.02-.15.03-.31.03-.48v-3.25s-.01-.07-.04-.1c-.03-.03-.05-.04-.09-.04"/>
  <path class="cls-2" d="m48.2,32.88h.29s.08-.02.12-.04c.03-.03.05-.07.05-.11v-.37s-.02-.09-.05-.12c-.03-.03-.07-.05-.12-.05h-.29s-.09.02-.12.05c-.03.03-.05.07-.05.12v.37s.02.08.05.11c.03.03.07.04.12.04"/>
  <path class="cls-2" d="m48.82,31.9h.29s.09-.01.12-.04c.04-.03.06-.07.06-.11v-.33s-.02-.08-.05-.11c-.03-.03-.07-.04-.12-.04h-.29s-.08.02-.12.04c-.04.03-.05.07-.05.11v.33s.02.09.05.11c.03.03.07.04.12.04"/>
  <path class="cls-2" d="m49.29,32.72s.02.08.06.11c.04.03.08.05.12.05h.29s.08-.02.12-.05c.03-.03.05-.07.05-.11v-.37c0-.05-.02-.09-.05-.12-.04-.03-.07-.05-.12-.05h-.29s-.08.02-.12.05c-.04.03-.06.07-.06.12v.37Z"/>
  <path class="cls-2" d="m52.2,32.88h.29s.09-.02.12-.04c.04-.03.05-.07.05-.11v-.4s-.02-.09-.05-.12c-.03-.03-.07-.04-.12-.04h-.29s-.09.02-.12.04c-.03.03-.05.07-.05.12v.4s.02.08.05.11c.03.03.07.04.12.04"/>
  <path class="cls-2" d="m53.47,32.88h.29s.09-.02.12-.04c.03-.03.05-.07.05-.11v-.4s-.02-.09-.05-.12c-.03-.03-.07-.04-.12-.04h-.29s-.09.02-.12.04c-.04.03-.06.07-.06.12v.4s.02.08.06.11c.04.03.08.04.12.04"/>
  <path class="cls-2" d="m59.05,33.79s-.01-.07-.04-.1c-.03-.03-.06-.04-.1-.04h-.35s-.07.01-.1.04c-.03.03-.04.06-.04.1.01.39.02.76.02,1.11v1.05c0,.07,0,.12-.01.16,0,.03-.02.06-.05.08-.03.02-.06.03-.1.03-.04,0-.1,0-.18,0h-.24c-.06,0-.13,0-.2,0-.07,0-.13-.01-.2-.03-.06-.01-.12-.03-.16-.05-.05-.02-.08-.05-.09-.09v-1.97s-.01-.07-.04-.1c-.02-.03-.06-.04-.1-.04h-.34s-.07.01-.1.04c-.03.03-.04.06-.04.1v1.88c0,.06-.02.11-.05.14-.03.04-.07.06-.12.08s-.1.03-.16.04c-.06,0-.11.01-.15.01h-.16s-.1,0-.16,0c-.06,0-.12-.01-.18-.03-.06-.01-.11-.03-.16-.05-.05-.02-.08-.05-.09-.09v-1.72s-.01-.07-.04-.1c-.02-.03-.06-.05-.1-.05h-.34s-.07.02-.1.05c-.02.03-.04.06-.04.1v1.61c0,.07-.02.12-.06.15-.04.04-.08.06-.13.08-.05.02-.11.03-.17.03-.06,0-.11,0-.16,0h-.37s-.1,0-.16,0c-.06,0-.12-.01-.18-.03-.06-.01-.11-.03-.16-.05s-.08-.05-.09-.09v-2.04s-.01-.07-.04-.1c-.03-.03-.06-.04-.1-.04h-.34s-.07.01-.1.04c-.03.03-.04.06-.04.1v1.95c0,.07-.02.12-.06.15s-.08.06-.14.08c-.05.02-.11.03-.17.03-.06,0-.11,0-.16,0h-2.27s-.1,0-.16,0c-.06,0-.12-.01-.18-.03-.06-.01-.11-.03-.16-.05-.05-.02-.08-.05-.09-.09v-2.04s-.01-.07-.04-.1c-.03-.03-.06-.04-.1-.04h-.34s-.07.01-.1.04-.04.06-.04.1v1.95c0,.07-.02.12-.06.15-.04.04-.08.06-.14.08-.05.02-.11.03-.17.03-.06,0-.11,0-.17,0h-1.08s-.09,0-.15-.02c-.06,0-.12-.03-.17-.05-.06-.03-.11-.06-.15-.11-.05-.04-.07-.1-.08-.17.01-.05.02-.12.02-.19,0-.07,0-.13,0-.19v-.42c0-.52-.13-.92-.38-1.18-.25-.27-.63-.4-1.12-.4s-.88.14-1.14.41c-.26.27-.4.66-.4,1.18v.71c0,.08,0,.16-.02.22-.01.05-.04.09-.08.11-.04.03-.09.05-.15.06-.05.02-.11.02-.17.03-.06,0-.1,0-.14,0h-4.87c-.08,0-.15,0-.21-.02-.06,0-.11-.03-.16-.06-.04-.03-.08-.07-.1-.13-.02-.06-.03-.14-.03-.24v-4.36s-.01-.08-.04-.1c-.02-.03-.06-.04-.1-.04h-.36s-.07.01-.1.04c-.03.03-.04.07-.04.1v4.51c0,.19.02.34.06.46.04.12.11.21.19.29.08.07.19.12.3.15.12.03.26.04.42.04h4.97c.18,0,.35-.02.51-.06.16-.04.29-.11.39-.23.11.17.28.29.5.37.22.08.46.12.74.12.56,0,.96-.17,1.19-.5.09.1.22.17.38.22.16.05.32.07.48.07h.99c.14,0,.29-.02.46-.05.17-.03.32-.1.44-.2.11.1.26.16.44.2.18.03.34.05.49.05h2.16c.14,0,.29-.02.47-.05.17-.03.32-.1.44-.2.11.1.26.16.44.2.18.03.34.05.49.05h.29c.15,0,.31-.02.48-.05.17-.03.31-.1.43-.2.11.1.25.16.41.2.16.03.31.05.47.05h.13c.17,0,.34-.02.49-.06.15-.04.28-.1.38-.19.13.1.28.16.46.19.18.03.36.04.54.04h.12c.16,0,.31,0,.45-.02.14-.01.25-.03.33-.06.06-.03.1-.05.12-.09.02-.03.04-.08.05-.13,0-.06,0-.13.02-.2,0-.07,0-.15.01-.23,0-.08,0-.15,0-.23v-1.26c0-.12,0-.25,0-.39,0-.13,0-.29-.01-.45m-13.14,1.67c0,.34-.07.6-.2.76-.13.17-.36.25-.69.25-.24,0-.43-.05-.58-.14-.15-.09-.25-.24-.29-.45-.02-.11-.03-.25-.03-.42v-.34c0-.34.07-.6.21-.78.14-.18.38-.27.7-.27s.55.09.68.27c.13.18.2.44.2.78v.34Z"/>
  <path class="cls-2" d="m61.13,35.54h.36s.07-.01.1-.04c.02-.03.04-.06.04-.1v-3.54c0-.09-.04-.14-.13-.14h-.36s-.07.01-.1.04c-.02.03-.04.06-.04.1v3.54s.01.07.04.1c.02.03.06.04.1.04"/>
  <path class="cls-2" d="m65.88,31.26h-.36s-.07.01-.1.04c-.03.03-.04.06-.04.1v4.54c0,.13-.02.21-.06.23-.04.03-.13.04-.27.04h-.66s-.09,0-.15,0c-.06,0-.12-.01-.18-.03-.06-.01-.11-.03-.16-.05-.05-.02-.08-.05-.09-.09v-4.63s-.01-.07-.04-.1c-.02-.03-.06-.04-.1-.04h-.37s-.07.01-.1.04c-.02.03-.04.06-.04.1v4.53c0,.07-.02.12-.05.15-.04.04-.08.06-.14.08-.05.02-.11.03-.17.03-.06,0-.11,0-.16,0h-2.5c-.09,0-.14.04-.14.13v.38c0,.09.05.13.14.13h2.45c.14,0,.29-.02.46-.05.17-.03.32-.1.45-.2.12.1.26.16.43.2.17.03.33.05.48.05h.44c.08,0,.17,0,.27,0,.1,0,.19,0,.28-.01.09,0,.17-.02.24-.02.07,0,.13-.02.17-.03.06-.03.1-.05.12-.09.02-.03.03-.08.05-.13,0-.06.02-.13.02-.2,0-.07,0-.15,0-.23,0-.08,0-.16,0-.23v-4.49s-.01-.07-.04-.1c-.03-.03-.06-.04-.1-.04"/>
  <path class="cls-2" d="m70.94,33.36h.32s.09-.01.12-.04c.03-.03.05-.07.05-.11v-.4s-.02-.09-.05-.12c-.03-.03-.07-.04-.11-.04h-.32s-.08.02-.12.04c-.04.03-.05.07-.05.12v.4s.02.08.05.11c.03.03.07.04.12.04"/>
  <path class="cls-2" d="m72.77,33.84h-.36s-.07.01-.09.04c-.03.03-.04.06-.04.1v2.78c0,.09,0,.19,0,.3,0,.11,0,.23,0,.36-.12.02-.24.04-.35.04-.11,0-.22,0-.35,0-.38,0-.68-.05-.9-.14-.23-.09-.4-.22-.52-.38-.12-.16-.2-.35-.24-.57-.04-.22-.06-.46-.06-.72,0-.04,0-.09,0-.15,0-.06,0-.12.01-.19,0-.07.01-.13.02-.2,0-.07.01-.13.02-.19,0-.1-.03-.15-.11-.15h-.31s-.08.01-.1.03c-.02.02-.03.06-.04.11-.01.07-.03.15-.04.24-.01.09-.02.19-.03.28,0,.09-.01.18-.02.26,0,.08,0,.14,0,.19,0,.35.04.67.12.94.08.28.21.51.39.7.18.19.42.33.71.43.29.1.66.15,1.09.15.2,0,.4,0,.59-.03.2-.02.39-.05.57-.09.05-.02.1-.03.12-.06.02-.02.04-.06.04-.1,0-.07,0-.15.01-.24,0-.09,0-.19,0-.28,0-.1,0-.19,0-.28v-3.06s-.01-.07-.04-.1c-.02-.03-.05-.04-.09-.04"/>
  <path class="cls-2" d="m89.9,31.26h-.36s-.07.01-.1.04c-.03.03-.04.06-.04.1v4.54c0,.13-.02.21-.06.23-.04.03-.13.04-.27.04h-12.43v-.95c-.02-.27-.05-.51-.12-.74-.07-.22-.17-.42-.31-.58-.14-.16-.33-.29-.57-.38-.23-.09-.52-.13-.85-.13-.05,0-.14,0-.26,0-.12,0-.24.02-.37.04-.05,0-.09.02-.11.05-.02.02-.03.06-.03.1v.3c0,.08.05.11.15.11.07-.01.16-.02.26-.02.1,0,.18,0,.23,0,.47,0,.81.11,1.02.32.21.21.32.54.33.97v.91s-2.02,0-2.02,0c-.04,0-.07.01-.1.04-.03.02-.04.06-.04.1v.38s.01.07.04.09c.03.02.07.03.1.03h14.88c.08,0,.17,0,.27,0,.1,0,.19,0,.28-.01.09,0,.17-.02.24-.02.07,0,.13-.02.17-.03.06-.03.1-.05.12-.09.02-.03.03-.08.05-.13,0-.06.02-.13.02-.2,0-.07,0-.15,0-.23,0-.08,0-.16,0-.23v-4.49s-.01-.07-.04-.1c-.03-.03-.06-.04-.1-.04"/>
  <path class="cls-2" d="m94.2,32.59h.29s.08-.02.12-.04c.04-.03.05-.07.05-.11v-.4s-.02-.09-.05-.12c-.03-.03-.07-.04-.12-.04h-.29s-.09.02-.12.04c-.03.03-.05.07-.05.12v.4s.02.08.05.11c.03.03.07.04.12.04"/>
  <path class="cls-2" d="m95.42,32.59h.29s.09-.02.12-.04c.04-.03.05-.07.05-.11v-.4s-.02-.09-.05-.12c-.03-.03-.07-.04-.12-.04h-.29s-.09.02-.12.04c-.04.03-.06.07-.06.12v.4s.02.08.06.11c.04.03.08.04.12.04"/>
  <path class="cls-2" d="m104.88,33.97c-.37-.31-.92-.46-1.65-.46-.13,0-.27,0-.43,0-.16,0-.36.01-.6.02,0-.07.04-.17.09-.32.06-.15.13-.3.21-.46l.7-1.33s.02-.06.02-.08,0-.05-.03-.06-.05-.03-.09-.03h-.35c-.05,0-.09.02-.12.04-.03.03-.05.07-.08.1l-.56,1.02c-.08.14-.15.28-.2.4-.06.12-.11.24-.14.36-.04.11-.07.23-.09.34-.02.11-.03.22-.03.34v.08s0,.07,0,.08c.02.07.07.11.15.11.03,0,.09,0,.19,0,.1,0,.22,0,.36,0s.29,0,.45,0c.16,0,.32,0,.46,0,.25,0,.47.02.68.06.2.04.38.11.52.21.14.1.26.24.33.42.08.18.12.4.12.66,0,.24,0,.48-.02.72-.05,0-.13,0-.22.01-.09,0-.19,0-.29,0h-7.42c-.16,0-.28-.03-.38-.09-.09-.06-.14-.18-.14-.38v-2.09s0-.07-.02-.09c-.01-.02-.04-.04-.09-.05-.05-.01-.12-.03-.19-.04-.08-.01-.15-.02-.24-.03-.08-.01-.16-.02-.25-.02-.09,0-.16,0-.22,0-.28,0-.54.03-.78.09-.23.06-.44.16-.61.29-.17.13-.3.3-.4.51-.09.21-.14.46-.14.75v.19c0,.48.12.85.37,1.1.25.25.6.38,1.06.38h.07c.21,0,.4-.02.58-.07.18-.05.31-.13.39-.24.08.16.19.27.35.34.15.06.34.1.56.1h7.36c.14,0,.28,0,.41,0,.14,0,.26,0,.38,0,.12,0,.22,0,.3-.02.09,0,.15-.05.16-.15,0-.05.01-.13.02-.22,0-.09.01-.19.01-.29,0-.1,0-.2,0-.29,0-.1,0-.18,0-.25v-.13c0-.7-.19-1.21-.55-1.52m-9.18,1.74c0,.08-.02.15-.06.2-.04.05-.09.09-.16.12-.06.03-.14.05-.22.06-.08.01-.16.02-.23.02h-.14c-.32,0-.55-.08-.69-.25-.13-.17-.2-.4-.2-.7v-.16c0-.2.03-.37.09-.5.06-.13.15-.24.25-.31.11-.08.23-.13.38-.16.15-.03.31-.05.49-.05.06,0,.13,0,.21,0,.07,0,.16.01.26.02v1.69Z"/>
  <path class="cls-2" d="m119.58,32.91s.02.08.06.11c.04.03.08.04.12.04h.29s.09-.01.12-.04c.03-.03.05-.07.05-.11v-.37c0-.05-.02-.09-.05-.12-.03-.03-.07-.05-.12-.05h-.29s-.09.02-.12.05c-.04.03-.06.07-.06.12v.37Z"/>
  <path class="cls-2" d="m121.49,34.25c0-.13,0-.28-.01-.45,0-.04-.01-.07-.04-.1-.03-.03-.06-.04-.1-.04h-.35s-.07.01-.1.04c-.02.03-.04.06-.04.1,0,.39.01.76.01,1.11v1.05c0,.07,0,.12-.01.16,0,.04-.02.06-.05.08-.02.02-.06.03-.1.03-.04,0-.1,0-.17,0h-.24c-.06,0-.13,0-.2,0-.07,0-.13-.01-.2-.03-.06-.01-.11-.03-.16-.05-.04-.02-.07-.05-.09-.09v-1.97s-.01-.07-.04-.1c-.02-.03-.06-.04-.1-.04h-.34s-.07.01-.1.04c-.03.03-.04.06-.04.1v1.88c0,.06-.02.11-.05.14-.04.03-.08.06-.12.08-.05.02-.1.03-.16.04-.06,0-.11.01-.15.01h-.16s-.1,0-.16,0c-.06,0-.12-.01-.18-.03-.06-.01-.11-.03-.16-.05-.05-.02-.08-.05-.09-.09v-1.72s-.01-.07-.04-.1c-.02-.03-.06-.04-.1-.04h-.34s-.07.01-.1.04c-.02.03-.04.07-.04.1v1.61c0,.07-.02.12-.06.15-.04.04-.08.06-.13.08-.05.02-.11.03-.17.03-.06,0-.11,0-.16,0h-9.1v-2.22s-.01-.07-.04-.1c-.02-.03-.05-.04-.09-.04h-.36s-.07.01-.1.04c-.02.03-.04.06-.04.1v3.29c0,.16-.01.29-.04.39-.02.1-.07.17-.13.22-.07.05-.15.08-.25.1-.1.02-.24.02-.4.02h-.16c-.08,0-.13.04-.13.1v.32s0,.06.02.08c.02.02.05.03.1.04.05.01.12.02.2.02.08,0,.13,0,.16,0,.29,0,.52-.04.7-.1.18-.07.31-.19.41-.36.05-.1.09-.22.11-.35.02-.13.03-.28.03-.44v-.48h9.05c.15,0,.31-.02.48-.05.17-.03.31-.1.43-.2.11.1.25.17.41.2.16.03.31.05.47.05h.13c.17,0,.34-.02.49-.06.15-.04.28-.1.38-.19.13.1.28.16.46.19.18.03.36.05.54.05h.12c.16,0,.31,0,.45-.02.14-.01.25-.03.33-.06.06-.03.1-.05.12-.09.02-.03.04-.08.05-.13,0-.06.01-.13.02-.2,0-.07,0-.15.01-.23,0-.08,0-.15,0-.23v-1.26c0-.12,0-.25,0-.39"/>
  <path class="cls-2" d="m119.16,32.1h.28s.09-.01.12-.04c.04-.03.06-.07.06-.12v-.33s-.02-.08-.05-.11c-.03-.03-.07-.04-.12-.04h-.28s-.08.02-.12.04c-.04.03-.05.07-.05.11v.33s.02.09.05.12c.03.03.07.04.12.04"/>
  <path class="cls-2" d="m118.54,33.06h.29s.08-.02.12-.04c.04-.03.05-.07.05-.11v-.37s-.02-.09-.05-.12c-.03-.03-.07-.05-.12-.05h-.29s-.09.02-.12.05c-.03.03-.05.07-.05.12v.37s.02.08.05.11c.03.03.07.04.12.04"/>
  <path class="cls-2" d="m38.04,45.78s0,.05-.02.07c-.01.02-.03.03-.05.04-.1.01-.27.03-.52.04-.25.01-.54.02-.88.02-.19,0-.38-.02-.56-.04-.18-.03-.35-.09-.49-.18-.14-.09-.26-.23-.35-.4-.09-.18-.13-.41-.13-.71v-3.91s.01-.07.04-.1c.03-.03.06-.04.1-.04h.37s.07.01.1.04c.03.03.04.06.04.1v3.91c0,.14.01.26.03.35.02.09.06.17.13.23.06.06.15.1.27.13.11.03.27.04.46.04h1.39c.05,0,.08.03.08.09v.34Z"/>
  <path class="cls-2" d="m41.4,45.75s-.02.07-.04.1c-.03.03-.06.04-.1.04h-.33s-.07-.01-.1-.04c-.03-.03-.04-.06-.04-.1v-.16c-.17.1-.35.18-.53.25-.18.07-.37.1-.57.1-.15,0-.3-.02-.44-.05-.14-.04-.27-.1-.37-.19s-.19-.21-.26-.36c-.06-.15-.1-.33-.1-.56v-.09c0-.19.03-.36.09-.51.06-.15.16-.27.29-.37.14-.1.32-.17.54-.22.22-.05.49-.07.81-.07h.53v-.29c0-.3-.06-.51-.17-.63-.11-.12-.31-.18-.6-.18-.23,0-.44,0-.62.02-.18.01-.34.02-.48.04h-.04s-.06,0-.09-.02c-.03-.01-.04-.04-.04-.09v-.25c0-.08.05-.12.15-.14.15-.02.31-.05.48-.07.18-.02.38-.03.63-.03.5,0,.86.12,1.07.36.22.24.33.57.33.99v2.51Zm-.63-1.77h-.53c-.22,0-.4.01-.54.04s-.26.07-.34.12c-.08.05-.14.13-.17.22-.03.09-.05.2-.05.33v.09c0,.26.06.43.17.52.11.09.28.13.49.13.17,0,.33-.02.48-.07.15-.05.32-.12.49-.22v-1.16Z"/>
  <path class="cls-2" d="m45.29,45.66s0,.09-.03.11c-.02.03-.06.04-.13.05-.22.04-.45.07-.66.09-.22.02-.44.03-.66.03-.27,0-.5-.04-.7-.13-.2-.08-.36-.2-.49-.36-.13-.15-.23-.34-.29-.56-.06-.22-.09-.46-.09-.73v-.52c0-.56.13-1,.39-1.3.26-.3.65-.46,1.18-.46.11,0,.24,0,.4.02.16.01.3.03.44.05v-1.34s.01-.07.04-.1c.03-.03.06-.04.1-.04h.37s.07.01.09.04c.02.03.04.06.04.1v5.03Zm-.63-3.16c-.12-.02-.26-.04-.42-.04-.16,0-.3,0-.42,0-.18,0-.33.03-.45.08-.12.05-.22.13-.29.23-.07.1-.12.23-.15.38-.03.15-.05.32-.05.51v.52c0,.39.07.69.2.9.13.21.38.32.73.32.12,0,.26,0,.42-.01.15,0,.3-.02.42-.03v-2.85Z"/>
  <path class="cls-2" d="m49.29,45.75s-.01.07-.04.1c-.03.03-.06.04-.1.04h-.36s-.07-.01-.1-.04c-.03-.03-.04-.06-.04-.1v-.14c-.2.11-.39.2-.56.25-.17.05-.37.08-.58.08-.44,0-.75-.13-.95-.39-.2-.26-.3-.63-.3-1.11v-2.36s.01-.07.04-.1c.03-.03.06-.04.1-.04h.35s.07.01.1.04c.03.03.04.06.04.1v2.36c0,.18.02.33.05.46.03.12.08.22.14.29.07.07.15.12.24.15.1.03.22.05.36.05.15,0,.31-.03.47-.08.16-.05.33-.12.5-.2v-3.03s.02-.07.04-.1.06-.04.1-.04h.35s.07.01.1.04c.03.03.04.06.04.1v3.66Z"/>
  <path class="cls-2" d="m53.3,45.75s-.02.07-.04.1c-.03.03-.06.04-.1.04h-.35s-.07-.01-.1-.04c-.03-.03-.04-.06-.04-.1v-2.36c0-.18-.02-.33-.05-.45-.03-.12-.08-.22-.14-.29-.06-.07-.15-.12-.25-.15-.1-.03-.22-.05-.35-.05-.15,0-.31.03-.47.08-.16.05-.33.12-.5.2v3.03s-.01.07-.04.1c-.03.03-.06.04-.1.04h-.35s-.07-.01-.1-.04c-.03-.03-.04-.06-.04-.1v-3.66s.01-.07.04-.1c.02-.03.06-.04.1-.04h.36s.07.02.1.04c.03.03.04.06.04.1v.14c.2-.11.39-.2.56-.25.17-.06.37-.08.58-.08.44,0,.75.13.95.39.2.26.3.63.3,1.11v2.36Z"/>
  <path class="cls-2" d="m56.85,45.75s-.01.07-.04.1c-.02.03-.06.04-.09.04h-.39s-.07-.01-.09-.04c-.02-.03-.04-.06-.04-.1v-5.06s.01-.07.04-.1c.02-.03.05-.04.09-.04h.39s.07.01.09.04c.02.03.04.06.04.1v5.06Z"/>
  <path class="cls-2" d="m60.99,45.75s-.02.07-.04.1c-.03.03-.06.04-.1.04h-.35s-.07-.01-.1-.04c-.03-.03-.04-.06-.04-.1v-2.36c0-.18-.02-.33-.05-.45-.03-.12-.08-.22-.14-.29-.06-.07-.15-.12-.25-.15-.1-.03-.22-.05-.35-.05-.15,0-.31.03-.48.08-.16.05-.33.12-.5.2v3.03s-.01.07-.04.1c-.03.03-.06.04-.1.04h-.35s-.07-.01-.1-.04c-.03-.03-.04-.06-.04-.1v-3.66s.01-.07.04-.1c.02-.03.06-.04.1-.04h.36s.07.02.1.04c.03.03.04.06.04.1v.14c.2-.11.39-.2.56-.25.17-.06.37-.08.58-.08.44,0,.75.13.95.39.2.26.3.63.3,1.11v2.36Z"/>
  <path class="cls-2" d="m64.85,42.07s0,.04,0,.05l-.97,3.42c-.05.16-.13.27-.24.33-.12.05-.25.08-.4.08s-.29-.03-.4-.08c-.11-.05-.2-.16-.24-.33l-.97-3.42s0-.03,0-.05c0-.08.04-.12.11-.12h.4c.06,0,.11.05.14.14l.83,3.13c.02.09.04.14.06.17.02.03.05.04.09.04.03,0,.06-.01.08-.04.02-.03.04-.08.07-.17l.83-3.13c.03-.09.07-.14.14-.14h.39c.08,0,.12.04.12.12"/>
  <path class="cls-2" d="m68.51,43.96c0,.11-.05.16-.14.16h-2.4v.1c0,.43.08.73.25.91.17.18.42.27.75.27.21,0,.43,0,.67-.02.24-.02.44-.03.61-.06h.04s.05,0,.08.02c.02.02.04.04.04.08v.24s-.01.08-.03.11c-.02.03-.06.05-.11.05-.21.04-.41.07-.61.09-.2.02-.43.03-.67.03-.21,0-.41-.03-.6-.08-.2-.05-.37-.15-.52-.28s-.27-.31-.37-.53c-.09-.22-.14-.5-.14-.83v-.65c0-.52.14-.93.41-1.23.27-.3.67-.45,1.18-.45.26,0,.49.04.69.12.2.08.36.19.49.34.13.15.23.32.3.53.07.21.1.44.1.69v.39Zm-.63-.39c0-.41-.08-.7-.23-.87-.16-.17-.39-.26-.71-.26s-.55.09-.72.27c-.17.18-.25.47-.25.85v.07h1.9v-.07Z"/>
  <path class="cls-2" d="m71.88,44.91c0,.18-.03.34-.1.47-.06.13-.16.24-.27.32-.12.08-.26.15-.42.19-.17.04-.35.06-.55.06-.07,0-.15,0-.24,0-.09,0-.19,0-.3-.02-.1-.01-.21-.02-.31-.03-.11-.01-.2-.03-.29-.05-.1-.02-.15-.07-.15-.14v-.25s.01-.06.04-.08c.02-.02.06-.03.09-.03h.03c.09,0,.18.02.28.03.1.01.21.02.31.03s.2.01.3.02c.09,0,.17,0,.24,0,.23,0,.41-.04.53-.11.12-.07.18-.21.18-.4,0-.11-.04-.21-.12-.29-.08-.08-.22-.18-.42-.31l-.73-.43c-.22-.13-.4-.28-.53-.44-.13-.16-.2-.36-.2-.59,0-.19.03-.34.1-.46.07-.12.16-.22.27-.3.11-.07.25-.13.41-.16.16-.03.33-.04.52-.04.2,0,.4,0,.59.03.19.02.37.04.54.07.09.02.14.06.14.14v.24c0,.08-.04.12-.12.12h-.02c-.12,0-.29-.02-.5-.04-.21-.01-.41-.02-.61-.02s-.36.02-.48.07c-.12.05-.18.16-.18.34,0,.11.04.21.12.28.08.08.21.17.37.26l.71.42c.3.18.5.35.62.52.12.17.17.36.17.57"/>
  <path class="cls-2" d="m74.74,45.79c0,.07-.04.11-.13.12-.07.01-.15.02-.24.03-.09,0-.16.01-.23.01-.17,0-.31-.01-.44-.04-.12-.03-.22-.08-.3-.15-.08-.07-.14-.17-.18-.29-.04-.12-.06-.29-.06-.48v-2.51l-.7-.08c-.09-.01-.14-.05-.14-.13v-.19c0-.09.04-.13.14-.13h.7v-.7c0-.08.04-.13.13-.14l.37-.06h.02s.05.01.08.03c.02.02.03.05.03.09v.78h.78s.07.01.1.04c.03.03.04.06.04.1v.24s-.01.07-.04.1c-.03.03-.06.04-.1.04h-.78v2.5c0,.2.03.32.09.37.06.05.16.08.3.08h.4c.1,0,.15.03.15.1v.26Z"/>
  <path class="cls-2" d="m80.16,45.75s-.02.07-.04.1c-.03.03-.06.04-.1.04h-.35s-.07-.01-.1-.04c-.03-.03-.04-.06-.04-.1v-2.54c0-.15-.02-.27-.05-.37-.03-.1-.08-.18-.14-.24-.06-.06-.13-.1-.21-.12-.08-.02-.17-.04-.26-.04-.13,0-.27.02-.41.06-.15.04-.29.08-.43.14.04.16.07.35.07.56v2.56s-.01.07-.04.1c-.02.03-.05.04-.09.04h-.38s-.07-.01-.09-.04c-.02-.03-.03-.06-.03-.1v-2.56c0-.16-.01-.29-.03-.38-.02-.1-.06-.18-.1-.23-.05-.05-.11-.09-.17-.11-.07-.02-.15-.03-.24-.03-.13,0-.27.03-.42.08-.15.05-.3.12-.46.2v3.03s-.01.07-.04.1c-.02.03-.05.04-.09.04h-.38s-.07-.01-.09-.04c-.02-.03-.03-.06-.03-.1v-3.66s.01-.07.04-.1c.03-.03.06-.04.1-.04h.36s.07.01.1.04c.03.03.04.06.04.1v.14c.14-.09.31-.17.48-.24s.37-.1.57-.1c.15,0,.29.02.41.07.12.05.22.12.31.23.2-.09.4-.17.61-.22.2-.05.4-.08.59-.08.16,0,.31.02.46.07.14.04.26.12.37.22.11.1.19.24.25.41.06.17.09.38.09.63v2.54Z"/>
  <path class="cls-2" d="m84.18,43.96c0,.11-.05.16-.14.16h-2.4v.1c0,.43.08.73.25.91.17.18.42.27.75.27.21,0,.43,0,.67-.02.24-.02.44-.03.61-.06h.04s.05,0,.08.02c.02.02.04.04.04.08v.24s-.01.08-.03.11c-.02.03-.06.05-.11.05-.21.04-.41.07-.61.09-.2.02-.43.03-.67.03-.21,0-.41-.03-.6-.08-.2-.05-.37-.15-.52-.28s-.27-.31-.37-.53c-.09-.22-.14-.5-.14-.83v-.65c0-.52.14-.93.41-1.23.27-.3.67-.45,1.18-.45.26,0,.49.04.69.12.2.08.36.19.49.34.13.15.23.32.3.53.07.21.1.44.1.69v.39Zm-.63-.39c0-.41-.08-.7-.23-.87-.16-.17-.39-.26-.71-.26s-.55.09-.72.27c-.17.18-.25.47-.25.85v.07h1.9v-.07Z"/>
  <path class="cls-2" d="m88.07,45.75s-.02.07-.04.1c-.03.03-.06.04-.1.04h-.35s-.07-.01-.1-.04c-.03-.03-.04-.06-.04-.1v-2.36c0-.18-.02-.33-.05-.45-.03-.12-.08-.22-.14-.29-.06-.07-.15-.12-.25-.15-.1-.03-.22-.05-.35-.05-.15,0-.31.03-.47.08-.16.05-.33.12-.5.2v3.03s-.01.07-.04.1c-.03.03-.06.04-.1.04h-.35s-.07-.01-.1-.04c-.03-.03-.04-.06-.04-.1v-3.66s.01-.07.04-.1c.02-.03.06-.04.1-.04h.36s.07.02.1.04c.03.03.04.06.04.1v.14c.2-.11.39-.2.56-.25.17-.06.37-.08.58-.08.44,0,.75.13.95.39.2.26.3.63.3,1.11v2.36Z"/>
  <path class="cls-2" d="m90.97,45.79c0,.07-.04.11-.13.12-.07.01-.15.02-.24.03-.09,0-.16.01-.23.01-.17,0-.31-.01-.44-.04-.12-.03-.22-.08-.3-.15-.08-.07-.14-.17-.18-.29-.04-.12-.06-.29-.06-.48v-2.51l-.7-.08c-.09-.01-.14-.05-.14-.13v-.19c0-.09.04-.13.14-.13h.7v-.7c0-.08.04-.13.13-.14l.37-.06h.02s.05.01.08.03c.02.02.03.05.03.09v.78h.78s.07.01.1.04c.03.03.04.06.04.1v.24s-.01.07-.04.1c-.03.03-.06.04-.1.04h-.78v2.5c0,.2.03.32.09.37.06.05.16.08.3.08h.4c.1,0,.15.03.15.1v.26Z"/>
  <path class="cls-2" d="m96.62,45.71s-.01.08-.04.1c-.03.02-.06.04-.1.05-.08.01-.15.03-.23.04-.08.01-.16.02-.25.03-.09,0-.19.01-.31.02-.11,0-.25,0-.4,0-.22,0-.44-.03-.67-.1-.23-.07-.43-.19-.61-.36-.18-.17-.33-.4-.45-.68-.11-.29-.17-.65-.17-1.08v-1c0-.44.06-.8.17-1.09.11-.28.26-.51.45-.68.18-.17.38-.28.61-.35.22-.07.45-.1.67-.1.23,0,.45.01.66.04.21.02.39.05.55.07.08,0,.11.04.11.09v.37s0,.04-.01.06c0,.01-.03.02-.07.02h-.02c-.07,0-.15-.01-.24-.02-.09,0-.2-.02-.3-.02-.11,0-.22-.01-.33-.02-.12,0-.22,0-.33,0-.18,0-.34.03-.49.08-.15.06-.28.15-.4.27-.11.13-.2.29-.26.5-.07.21-.1.47-.1.77v1c0,.3.03.56.1.77.07.21.15.38.26.5.11.13.24.22.4.28.15.06.32.09.49.09.1,0,.21,0,.32,0,.11,0,.22,0,.33-.02.11,0,.21-.01.3-.02.09,0,.17-.01.24-.02h.03c.08,0,.12.04.12.12v.29Z"/>
  <path class="cls-2" d="m100.36,44.19c0,.26-.03.5-.1.72-.07.22-.17.4-.3.55-.13.15-.3.27-.5.36-.2.08-.43.13-.7.13s-.49-.04-.69-.13c-.2-.08-.37-.2-.5-.36-.13-.15-.23-.34-.3-.55-.07-.22-.1-.46-.1-.72v-.55c0-.26.03-.5.1-.72.07-.22.17-.4.3-.55.13-.15.3-.27.5-.36.2-.08.43-.13.69-.13s.5.04.7.13c.2.08.37.2.5.36.13.15.24.34.3.55.07.22.1.45.1.72v.55Zm-.63-.55c0-.37-.08-.66-.23-.88-.15-.22-.4-.32-.74-.32s-.58.11-.73.32c-.15.21-.23.51-.23.88v.55c0,.37.08.66.23.88s.4.32.74.32.58-.11.74-.32c.16-.21.23-.51.23-.88v-.55Z"/>
  <path class="cls-2" d="m105.96,45.75s-.02.07-.04.1c-.03.03-.06.04-.1.04h-.35s-.07-.01-.1-.04c-.03-.03-.04-.06-.04-.1v-2.54c0-.15-.02-.27-.05-.37-.03-.1-.08-.18-.14-.24-.06-.06-.13-.1-.21-.12-.08-.02-.17-.04-.26-.04-.13,0-.27.02-.41.06-.15.04-.29.08-.43.14.04.16.07.35.07.56v2.56s-.01.07-.04.1c-.02.03-.05.04-.09.04h-.38s-.07-.01-.09-.04c-.02-.03-.03-.06-.03-.1v-2.56c0-.16-.01-.29-.03-.38-.02-.1-.06-.18-.1-.23-.05-.05-.11-.09-.17-.11-.07-.02-.15-.03-.24-.03-.13,0-.27.03-.42.08-.15.05-.3.12-.46.2v3.03s-.01.07-.04.1c-.02.03-.05.04-.09.04h-.38s-.07-.01-.09-.04c-.02-.03-.03-.06-.03-.1v-3.66s.01-.07.04-.1c.03-.03.06-.04.1-.04h.36s.07.01.1.04c.02.03.04.06.04.1v.14c.14-.09.31-.17.48-.24s.37-.1.57-.1c.15,0,.29.02.41.07.12.05.22.12.31.23.2-.09.4-.17.61-.22.2-.05.4-.08.59-.08.16,0,.31.02.46.07.14.04.26.12.37.22.11.1.19.24.25.41.06.17.09.38.09.63v2.54Z"/>
  <path class="cls-2" d="m109.98,44.19c0,.57-.13,1-.39,1.3-.26.3-.65.46-1.18.46-.11,0-.24,0-.4-.02-.16-.02-.3-.03-.44-.06v1.3s-.01.07-.04.1c-.03.03-.06.04-.1.04h-.37s-.07-.01-.09-.04c-.02-.03-.04-.06-.04-.1v-4.94s0-.08.03-.11c.02-.02.06-.04.13-.06.19-.05.41-.09.64-.12.23-.03.46-.05.68-.05.27,0,.5.04.7.13.2.08.36.2.49.36.13.16.23.34.29.56.06.22.09.46.09.73v.52Zm-.63-.52c0-.19-.02-.36-.05-.51-.03-.15-.08-.28-.15-.39-.07-.11-.17-.19-.29-.25-.12-.06-.27-.09-.44-.09-.15,0-.31,0-.46.02-.15.02-.28.03-.38.05v2.85c.12.02.26.04.42.05.16.01.3.02.42.02.18,0,.33-.03.44-.08.12-.06.22-.13.29-.24.07-.11.12-.23.15-.39.03-.15.05-.33.05-.52v-.52Z"/>
  <path class="cls-2" d="m113.58,45.75s-.01.07-.04.1c-.03.03-.06.04-.1.04h-.33s-.07-.01-.1-.04c-.03-.03-.04-.06-.04-.1v-.16c-.17.1-.35.18-.53.25-.18.07-.37.1-.57.1-.15,0-.3-.02-.44-.05-.14-.04-.27-.1-.37-.19-.11-.09-.19-.21-.26-.36-.07-.15-.1-.33-.1-.56v-.09c0-.19.03-.36.09-.51.06-.15.16-.27.29-.37.14-.1.31-.17.54-.22.22-.05.49-.07.81-.07h.53v-.29c0-.3-.06-.51-.17-.63s-.31-.18-.6-.18c-.23,0-.44,0-.62.02-.18.01-.34.02-.48.04h-.04s-.06,0-.09-.02c-.03-.01-.04-.04-.04-.09v-.25c0-.08.05-.12.15-.14.15-.02.31-.05.49-.07.17-.02.38-.03.63-.03.5,0,.86.12,1.07.36.22.24.33.57.33.99v2.51Zm-.63-1.77h-.53c-.22,0-.4.01-.54.04-.14.03-.26.07-.34.12-.08.05-.14.13-.17.22-.03.09-.05.2-.05.33v.09c0,.26.06.43.17.52.11.09.28.13.49.13.17,0,.33-.02.48-.07.15-.05.32-.12.49-.22v-1.16Z"/>
  <path class="cls-2" d="m117.58,45.75s-.02.07-.04.1c-.03.03-.06.04-.1.04h-.35s-.07-.01-.1-.04c-.03-.03-.04-.06-.04-.1v-2.36c0-.18-.02-.33-.05-.45-.03-.12-.08-.22-.14-.29-.06-.07-.15-.12-.25-.15-.1-.03-.22-.05-.35-.05-.15,0-.31.03-.47.08-.16.05-.33.12-.5.2v3.03s-.01.07-.04.1c-.03.03-.06.04-.1.04h-.35s-.07-.01-.1-.04c-.03-.03-.04-.06-.04-.1v-3.66s.01-.07.04-.1c.02-.03.06-.04.1-.04h.36s.07.02.1.04c.03.03.04.06.04.1v.14c.2-.11.39-.2.56-.25.17-.06.37-.08.58-.08.44,0,.75.13.95.39.2.26.3.63.3,1.11v2.36Z"/>
  <path class="cls-2" d="m121.47,42.07s0,.04,0,.05l-1.19,4.14c-.06.2-.12.36-.18.5-.06.13-.15.24-.25.33-.1.08-.22.14-.36.18-.14.04-.32.06-.52.06-.1,0-.21,0-.32-.02-.11-.01-.21-.03-.28-.05-.04,0-.08-.02-.11-.04-.03-.01-.04-.04-.04-.08v-.27c0-.08.05-.11.14-.11h.02c.08,0,.19.02.32.03.13,0,.24.01.32.01.1,0,.19,0,.27-.02.08-.02.14-.05.2-.09.06-.05.1-.11.14-.19.04-.08.07-.18.1-.3l.07-.29h-.1c-.05,0-.1,0-.15-.01-.05,0-.1-.03-.14-.06-.05-.03-.09-.08-.13-.15-.04-.07-.07-.16-.11-.26l-.96-3.28s0-.03,0-.05c0-.08.04-.12.13-.12h.4s.05.01.07.04c.02.02.04.05.05.08l.85,3.12c.02.07.04.12.07.13.02.02.05.03.07.03h.12l.88-3.28s.03-.05.05-.07c.02-.02.05-.03.09-.03h.4c.08,0,.12.04.12.12"/>
</svg>