<svg xmlns="http://www.w3.org/2000/svg" xmlns:xlink="http://www.w3.org/1999/xlink" width="500" zoomAndPan="magnify" viewBox="0 0 375 374.999991" height="500" preserveAspectRatio="xMidYMid meet" version="1.0"><defs><clipPath id="082c29d096"><path d="M 0 10.3125 L 375 10.3125 L 375 365 L 0 365 Z M 0 10.3125 " clip-rule="nonzero"/></clipPath></defs><path fill="#ae9643" d="M 174.910156 200.089844 C 174.910156 197.457031 172.800781 195.246094 170.0625 195.246094 L 129.8125 195.246094 C 127.175781 195.246094 124.964844 197.351562 124.964844 200.089844 L 124.964844 230.226562 C 124.964844 232.859375 127.070312 235.074219 129.8125 235.074219 L 170.167969 235.074219 C 172.800781 235.074219 175.015625 232.964844 175.015625 230.226562 L 175.015625 200.089844 Z M 165.425781 226.328125 L 134.554688 226.328125 L 134.554688 204.9375 L 165.425781 204.9375 Z M 165.425781 226.328125 " fill-opacity="1" fill-rule="nonzero"/><path fill="#ae9643" d="M 250.035156 200.089844 C 250.035156 197.457031 247.929688 195.246094 245.1875 195.246094 L 204.832031 195.246094 C 202.199219 195.246094 199.984375 197.351562 199.984375 200.089844 L 199.984375 230.226562 C 199.984375 232.859375 202.09375 235.074219 204.832031 235.074219 L 245.1875 235.074219 C 247.824219 235.074219 250.035156 232.964844 250.035156 230.226562 Z M 209.679688 204.832031 L 240.550781 204.832031 L 240.550781 226.222656 L 209.679688 226.222656 Z M 209.679688 204.832031 " fill-opacity="1" fill-rule="nonzero"/><path fill="#ae9643" d="M 174.910156 256.144531 C 174.910156 253.511719 172.800781 251.300781 170.0625 251.300781 L 129.8125 251.300781 C 127.175781 251.300781 124.964844 253.40625 124.964844 256.144531 L 124.964844 286.28125 C 124.964844 288.914062 127.070312 291.128906 129.8125 291.128906 L 170.167969 291.128906 C 172.800781 291.128906 175.015625 289.019531 175.015625 286.28125 L 175.015625 256.144531 Z M 165.425781 281.433594 L 134.554688 281.433594 L 134.554688 260.992188 L 165.425781 260.992188 Z M 165.425781 281.433594 " fill-opacity="1" fill-rule="nonzero"/><path fill="#ae9643" d="M 250.035156 256.144531 C 250.035156 253.511719 247.929688 251.300781 245.1875 251.300781 L 204.832031 251.300781 C 202.199219 251.300781 199.984375 253.40625 199.984375 256.144531 L 199.984375 286.28125 C 199.984375 288.914062 202.09375 291.128906 204.832031 291.128906 L 245.1875 291.128906 C 247.824219 291.128906 250.035156 289.019531 250.035156 286.28125 Z M 209.679688 261.097656 L 240.550781 261.097656 L 240.550781 281.539062 L 209.679688 281.539062 Z M 209.679688 261.097656 " fill-opacity="1" fill-rule="nonzero"/><g clip-path="url(#082c29d096)"><path fill="#ae9643" d="M 370.257812 226.117188 L 280.90625 226.117188 L 280.90625 162.160156 C 280.800781 160.472656 280.066406 159.105469 278.589844 158.261719 L 192.503906 100.730469 L 192.503906 61.957031 L 250.984375 61.957031 C 253.511719 61.957031 255.621094 59.847656 255.621094 57.109375 C 255.621094 55.949219 255.199219 55 254.566406 54.160156 L 240.65625 35.929688 L 254.566406 17.808594 C 255.726562 16.4375 255.832031 14.539062 255.09375 12.960938 C 254.25 11.273438 252.5625 10.324219 250.773438 10.429688 L 187.550781 10.429688 C 184.917969 10.429688 182.707031 12.222656 182.707031 14.855469 L 182.707031 100.625 L 96.515625 158.261719 C 95.144531 159.105469 94.410156 160.578125 94.199219 162.160156 L 94.199219 226.117188 L 4.847656 226.117188 C 2.210938 226.222656 0 228.433594 0.210938 231.070312 L 0.210938 360.039062 C 0.210938 362.460938 2.105469 364.464844 4.53125 364.464844 C 4.53125 364.464844 4.636719 364.464844 4.742188 364.464844 L 98.9375 364.464844 L 98.9375 364.675781 L 99.359375 364.464844 L 275.746094 364.464844 C 275.851562 364.464844 276.167969 364.675781 276.167969 364.675781 L 276.167969 364.464844 L 370.257812 364.464844 C 372.789062 364.570312 374.789062 362.671875 374.894531 360.25 C 374.894531 360.25 374.894531 360.144531 374.894531 360.039062 L 374.894531 231.070312 C 375 228.539062 372.789062 226.328125 370.257812 226.117188 Z M 94.410156 235.601562 L 94.410156 266.472656 L 9.800781 266.472656 L 9.800781 235.601562 Z M 9.800781 275.957031 L 94.410156 275.957031 L 94.410156 354.980469 L 9.800781 354.980469 Z M 192.398438 19.914062 L 241.289062 19.914062 L 231.070312 33.191406 C 229.804688 34.875 229.804688 37.195312 231.070312 38.878906 L 241.289062 52.261719 L 192.398438 52.261719 Z M 209.679688 354.980469 L 165.425781 354.980469 L 165.425781 317.785156 L 209.679688 317.785156 Z M 271.425781 354.980469 L 219.375 354.980469 L 219.375 312.832031 C 219.480469 310.410156 217.6875 308.410156 215.371094 308.304688 C 215.265625 308.304688 215.160156 308.304688 214.949219 308.304688 L 160.367188 308.304688 C 157.945312 308.304688 156.046875 310.09375 155.941406 312.515625 C 155.941406 312.621094 155.941406 312.726562 155.941406 312.9375 L 155.941406 355.085938 L 103.996094 355.085938 L 103.996094 164.6875 L 187.65625 108.84375 L 271.320312 164.6875 Z M 365.515625 235.601562 L 365.515625 266.472656 L 280.90625 266.472656 L 280.90625 235.601562 Z M 280.800781 354.980469 L 280.800781 275.957031 L 365.410156 275.957031 L 365.410156 354.980469 Z M 280.800781 354.980469 " fill-opacity="1" fill-rule="nonzero"/></g><path stroke-linecap="butt" transform="matrix(0, -0.75, 0.75, 0, 98.217838, 348.286208)" fill="none" stroke-linejoin="miter" d="M 0.00140277 2.001216 L 130.355578 2.001216 " stroke="#ae9643" stroke-width="4" stroke-opacity="1" stroke-miterlimit="4"/></svg>