<svg xmlns="http://www.w3.org/2000/svg" xmlns:xlink="http://www.w3.org/1999/xlink" width="500" zoomAndPan="magnify" viewBox="0 0 375 374.999991" height="500" preserveAspectRatio="xMidYMid meet" version="1.0"><defs><clipPath id="af3e3dc1ed"><path d="M 8.90625 0 L 365.90625 0 L 365.90625 375 L 8.90625 375 Z M 8.90625 0 " clip-rule="nonzero"/></clipPath></defs><g clip-path="url(#af3e3dc1ed)"><path fill="#ae9643" d="M 296.402344 115.304688 L 279.085938 115.304688 L 279.085938 130.214844 L 296.402344 130.214844 Z M 273.425781 103.980469 L 302.0625 103.980469 C 305.171875 103.980469 307.71875 106.527344 307.71875 109.640625 L 307.71875 135.871094 C 307.71875 138.992188 305.171875 141.53125 302.0625 141.53125 L 273.425781 141.53125 C 270.289062 141.53125 267.769531 138.984375 267.769531 135.871094 L 267.769531 109.640625 C 267.769531 106.527344 270.28125 103.980469 273.425781 103.980469 Z M 187.515625 306.433594 C 215.375 306.433594 240.550781 296.808594 258.71875 281.28125 C 276.660156 265.960938 287.765625 244.832031 287.765625 221.558594 L 287.765625 220.984375 L 87.253906 220.984375 L 87.253906 221.558594 C 87.253906 244.832031 98.363281 265.960938 116.28125 281.28125 C 134.484375 296.808594 159.65625 306.433594 187.515625 306.433594 Z M 266.070312 289.847656 C 245.914062 307.078125 218.148438 317.757812 187.515625 317.757812 C 156.886719 317.757812 129.125 307.078125 108.960938 289.847656 C 88.570312 272.417969 75.945312 248.269531 75.945312 221.558594 C 75.945312 221.371094 75.96875 221.195312 75.96875 220.984375 L 20.277344 220.984375 L 20.277344 232.507812 C 20.277344 233.996094 21.054688 235.394531 22.289062 236.453125 C 23.753906 237.710938 25.863281 238.488281 28.222656 238.488281 L 38.1875 238.488281 C 42.445312 238.488281 46.390625 239.699219 49.597656 241.785156 C 52.992188 244.007812 55.53125 247.21875 56.742188 251.089844 C 58.253906 255.945312 60.136719 260.664062 62.335938 265.222656 C 64.558594 269.804688 67.167969 274.300781 70.101562 278.625 C 72.488281 282.15625 73.335938 286.117188 72.738281 289.960938 C 72.164062 293.746094 70.191406 297.316406 66.917969 300.113281 L 59.863281 306.140625 C 59.585938 306.394531 59.335938 306.644531 59.128906 306.902344 C 58.277344 307.863281 57.867188 308.988281 57.867188 310.085938 L 57.84375 310.085938 C 57.84375 311.183594 58.277344 312.308594 59.101562 313.292969 C 59.328125 313.546875 59.585938 313.796875 59.863281 314.03125 L 77.980469 329.539062 C 79.566406 330.890625 81.742188 331.574219 83.9375 331.574219 C 86.160156 331.574219 88.3125 330.890625 89.894531 329.539062 L 96.949219 323.511719 C 100.046875 320.851562 103.867188 319.292969 107.851562 318.839844 C 111.773438 318.402344 115.847656 319.066406 119.5625 320.898438 C 124.621094 323.398438 129.941406 325.644531 135.4375 327.589844 C 140.890625 329.515625 146.5 331.164062 152.253906 332.472656 C 156.425781 333.433594 159.972656 335.519531 162.496094 338.339844 C 165.195312 341.339844 166.730469 345.121094 166.730469 349.21875 L 166.707031 349.21875 L 166.707031 357.738281 L 166.730469 357.738281 C 166.730469 359.199219 167.503906 360.597656 168.742188 361.65625 C 170.203125 362.941406 172.3125 363.71875 174.675781 363.71875 L 200.308594 363.71875 C 202.695312 363.71875 204.804688 362.941406 206.265625 361.65625 C 207.503906 360.605469 208.277344 359.207031 208.277344 357.738281 L 208.277344 349.21875 C 208.277344 345.121094 209.8125 341.339844 212.511719 338.339844 C 215.035156 335.519531 218.558594 333.433594 222.753906 332.472656 C 228.5 331.164062 234.117188 329.515625 239.546875 327.589844 C 245.066406 325.644531 250.359375 323.398438 255.445312 320.898438 C 259.152344 319.066406 263.234375 318.402344 267.15625 318.839844 C 271.140625 319.300781 274.96875 320.851562 278.058594 323.511719 L 285.089844 329.539062 C 286.6875 330.890625 288.847656 331.574219 291.046875 331.574219 C 293.269531 331.574219 295.417969 330.890625 297 329.539062 L 315.144531 314.054688 C 315.421875 313.804688 315.671875 313.554688 315.882812 313.292969 C 316.730469 312.308594 317.140625 311.183594 317.140625 310.085938 L 317.117188 310.085938 C 317.117188 308.988281 316.707031 307.863281 315.882812 306.902344 C 315.679688 306.652344 315.421875 306.402344 315.144531 306.140625 L 308.089844 300.113281 C 304.816406 297.316406 302.84375 293.746094 302.246094 289.960938 C 301.671875 286.117188 302.523438 282.148438 304.90625 278.625 C 307.839844 274.292969 310.449219 269.804688 312.671875 265.222656 C 314.871094 260.664062 316.753906 255.945312 318.265625 251.089844 C 319.476562 247.21875 322.023438 244.007812 325.410156 241.785156 C 328.59375 239.699219 332.554688 238.488281 336.820312 238.488281 L 346.761719 238.488281 C 349.144531 238.488281 351.253906 237.710938 352.71875 236.453125 C 353.953125 235.402344 354.730469 234.003906 354.730469 232.507812 L 354.730469 220.984375 L 299.039062 220.984375 C 299.039062 221.195312 299.039062 221.371094 299.039062 221.558594 C 299.0625 248.269531 286.460938 272.417969 266.070312 289.847656 Z M 200.316406 375.023438 L 174.683594 375.023438 C 169.574219 375.023438 164.855469 373.191406 161.394531 370.238281 C 157.710938 367.078125 155.414062 362.660156 155.414062 357.730469 L 155.4375 357.730469 L 155.4375 349.210938 L 155.414062 349.210938 C 155.414062 347.972656 154.929688 346.828125 154.105469 345.890625 C 153.070312 344.742188 151.558594 343.894531 149.734375 343.464844 C 143.527344 342.042969 137.496094 340.304688 131.679688 338.242188 C 125.785156 336.160156 120.066406 333.734375 114.570312 331.003906 C 112.847656 330.152344 110.925781 329.855469 109.097656 330.066406 C 107.3125 330.273438 105.613281 330.960938 104.289062 332.078125 L 97.257812 338.105469 C 93.523438 341.289062 88.714844 342.875 83.945312 342.875 C 79.203125 342.875 74.371094 341.289062 70.660156 338.105469 L 52.539062 322.621094 C 51.804688 322 51.140625 321.335938 50.542969 320.625 C 47.910156 317.53125 46.585938 313.84375 46.585938 310.085938 C 46.585938 306.375 47.894531 302.667969 50.542969 299.570312 C 51.140625 298.859375 51.804688 298.199219 52.539062 297.574219 L 59.597656 291.546875 C 60.71875 290.585938 61.40625 289.4375 61.566406 288.296875 C 61.753906 287.199219 61.480469 286.027344 60.742188 284.953125 C 57.535156 280.230469 54.699219 275.285156 52.175781 270.128906 C 49.726562 265.046875 47.644531 259.816406 45.96875 254.457031 C 45.558594 253.171875 44.660156 252.050781 43.425781 251.25 C 42.027344 250.335938 40.214844 249.804688 38.203125 249.804688 L 28.230469 249.804688 C 23.121094 249.804688 18.402344 247.96875 14.96875 245.019531 C 11.257812 241.859375 8.960938 237.4375 8.960938 232.507812 L 8.960938 215.351562 C 8.960938 212.214844 11.507812 209.691406 14.621094 209.691406 L 47.148438 209.691406 L 47.148438 26.9375 C 47.148438 23.824219 49.695312 21.28125 52.808594 21.28125 L 60.160156 21.28125 L 60.160156 5.679688 C 60.160156 2.546875 62.683594 0.0234375 65.820312 0.0234375 L 174.503906 0.0234375 C 177.640625 0.0234375 180.160156 2.546875 180.160156 5.679688 L 180.160156 21.28125 L 187.515625 21.28125 C 189.117188 21.28125 190.5625 21.941406 191.597656 23.015625 L 243.054688 51.925781 C 244.929688 52.839844 246.214844 54.769531 246.214844 57.007812 L 246.214844 82.296875 L 322.226562 82.296875 C 325.34375 82.296875 327.882812 84.820312 327.882812 87.929688 L 327.882812 209.667969 L 360.414062 209.667969 C 363.523438 209.667969 366.070312 212.191406 366.070312 215.324219 L 366.070312 232.484375 C 366.070312 237.40625 363.78125 241.835938 360.066406 244.996094 C 356.628906 247.953125 351.910156 249.777344 346.777344 249.777344 L 336.835938 249.777344 C 334.824219 249.777344 333.015625 250.304688 331.617188 251.226562 C 330.378906 252.050781 329.484375 253.148438 329.070312 254.433594 C 327.398438 259.792969 325.3125 265.023438 322.839844 270.105469 C 320.34375 275.261719 317.503906 280.207031 314.296875 284.925781 C 313.5625 286.003906 313.285156 287.175781 313.449219 288.273438 C 313.632812 289.421875 314.296875 290.558594 315.445312 291.523438 L 322.5 297.550781 C 323.234375 298.171875 323.898438 298.835938 324.496094 299.546875 C 327.132812 302.644531 328.457031 306.351562 328.457031 310.0625 L 328.433594 310.0625 C 328.433594 313.820312 327.121094 317.53125 324.488281 320.601562 C 323.890625 321.3125 323.226562 321.976562 322.492188 322.597656 L 304.371094 338.082031 C 300.636719 341.265625 295.828125 342.851562 291.0625 342.851562 C 286.316406 342.851562 281.507812 341.265625 277.773438 338.082031 L 270.71875 332.054688 C 269.410156 330.929688 267.722656 330.242188 265.933594 330.039062 C 264.101562 329.839844 262.175781 330.128906 260.464844 330.976562 C 254.945312 333.703125 249.238281 336.132812 243.328125 338.21875 C 237.511719 340.28125 231.507812 342.027344 225.300781 343.441406 C 223.441406 343.875 221.953125 344.726562 220.925781 345.863281 C 220.101562 346.777344 219.617188 347.949219 219.617188 349.1875 L 219.617188 357.703125 C 219.617188 362.625 217.332031 367.054688 213.613281 370.214844 C 210.167969 373.191406 205.449219 375.023438 200.316406 375.023438 Z M 58.464844 209.683594 L 82.21875 209.683594 L 82.21875 158.875 C 82.21875 155.738281 84.738281 153.214844 87.875 153.214844 L 152.433594 153.214844 C 155.570312 153.214844 158.089844 155.738281 158.089844 158.875 L 158.089844 209.683594 L 181.851562 209.683594 L 181.851562 32.59375 L 58.464844 32.59375 Z M 93.539062 209.683594 L 146.785156 209.683594 L 146.785156 164.53125 L 93.539062 164.53125 Z M 193.171875 209.683594 L 216.933594 209.683594 L 216.933594 158.875 C 216.933594 155.738281 219.457031 153.214844 222.566406 153.214844 L 287.148438 153.214844 C 290.285156 153.214844 292.808594 155.738281 292.808594 158.875 L 292.808594 209.683594 L 316.558594 209.683594 L 316.558594 93.605469 L 193.171875 93.605469 Z M 228.226562 209.683594 L 281.492188 209.683594 L 281.492188 164.53125 L 228.226562 164.53125 Z M 158.484375 112.070312 L 141.167969 112.070312 L 141.167969 126.984375 L 158.484375 126.984375 Z M 135.507812 100.757812 L 164.144531 100.757812 C 167.253906 100.757812 169.800781 103.304688 169.800781 106.414062 L 169.800781 132.648438 C 169.800781 135.785156 167.253906 138.304688 164.144531 138.304688 L 135.507812 138.304688 C 132.375 138.304688 129.851562 135.785156 129.851562 132.648438 L 129.851562 106.414062 C 129.851562 103.292969 132.375 100.757812 135.507812 100.757812 Z M 99.15625 112.070312 L 81.835938 112.070312 L 81.835938 126.984375 L 99.15625 126.984375 Z M 76.171875 100.757812 L 104.804688 100.757812 C 107.941406 100.757812 110.464844 103.304688 110.464844 106.414062 L 110.464844 132.648438 C 110.464844 135.785156 107.941406 138.304688 104.804688 138.304688 L 76.171875 138.304688 C 73.058594 138.304688 70.539062 135.785156 70.539062 132.648438 L 70.539062 106.414062 C 70.539062 103.292969 73.058594 100.757812 76.171875 100.757812 Z M 158.484375 57.226562 L 141.167969 57.226562 L 141.167969 72.140625 L 158.484375 72.140625 Z M 135.507812 45.90625 L 164.144531 45.90625 C 167.253906 45.90625 169.800781 48.449219 169.800781 51.5625 L 169.800781 77.796875 C 169.800781 80.90625 167.253906 83.453125 164.144531 83.453125 L 135.507812 83.453125 C 132.375 83.453125 129.851562 80.90625 129.851562 77.796875 L 129.851562 51.570312 C 129.851562 48.449219 132.375 45.90625 135.507812 45.90625 Z M 99.15625 57.226562 L 81.835938 57.226562 L 81.835938 72.140625 L 99.15625 72.140625 Z M 76.171875 45.90625 L 104.804688 45.90625 C 107.941406 45.90625 110.464844 48.449219 110.464844 51.5625 L 110.464844 77.796875 C 110.464844 80.90625 107.941406 83.453125 104.804688 83.453125 L 76.171875 83.453125 C 73.058594 83.453125 70.539062 80.90625 70.539062 77.796875 L 70.539062 51.570312 C 70.539062 48.449219 73.058594 45.90625 76.171875 45.90625 Z M 238.738281 115.304688 L 221.417969 115.304688 L 221.417969 130.214844 L 238.738281 130.214844 Z M 215.761719 103.980469 L 244.398438 103.980469 C 247.515625 103.980469 250.054688 106.527344 250.054688 109.640625 L 250.054688 135.871094 C 250.054688 138.992188 247.507812 141.53125 244.398438 141.53125 L 215.761719 141.53125 C 212.652344 141.53125 210.105469 138.984375 210.105469 135.871094 L 210.105469 109.640625 C 210.105469 106.527344 212.644531 103.980469 215.761719 103.980469 Z M 302.609375 42.582031 C 302.609375 39.464844 305.132812 36.925781 308.269531 36.925781 C 311.378906 36.925781 313.925781 39.472656 313.925781 42.582031 L 313.925781 74.425781 C 313.925781 77.539062 311.378906 80.082031 308.269531 80.082031 C 305.132812 80.082031 302.609375 77.539062 302.609375 74.425781 Z M 281.355469 56.765625 C 281.355469 53.648438 283.875 51.109375 287.011719 51.109375 C 290.125 51.109375 292.667969 53.65625 292.667969 56.765625 L 292.667969 74.433594 C 292.667969 77.546875 290.125 80.089844 287.011719 80.089844 C 283.875 80.089844 281.355469 77.546875 281.355469 74.433594 Z M 193.171875 82.3125 L 234.890625 82.3125 L 234.890625 60.316406 L 193.171875 36.878906 Z M 71.476562 21.28125 L 168.839844 21.28125 L 168.839844 11.339844 L 71.476562 11.339844 Z M 71.476562 21.28125 " fill-opacity="1" fill-rule="nonzero"/></g><path stroke-linecap="butt" transform="matrix(0.75, 0, 0, 0.75, 121.507986, 214.462032)" fill="none" stroke-linejoin="miter" d="M -0.000231495 1.99854 L 159.999779 1.99854 " stroke="#ae9643" stroke-width="4" stroke-opacity="1" stroke-miterlimit="4"/></svg>