<svg width="42" height="24" viewBox="0 0 42 24" fill="none" xmlns="http://www.w3.org/2000/svg">
<path d="M33.3808 4.83509C33.374 4.8999 33.3535 4.9613 33.3228 5.0227C33.2887 5.16597 33.2717 5.3297 33.2717 5.51048C33.2717 5.52754 33.2751 5.54459 33.2751 5.56165V17.4117C33.4252 17.7835 33.6094 18.0632 33.8311 18.2371C34.0357 18.4009 34.2882 18.4793 34.5952 18.4657C34.6156 18.4623 34.6395 18.4623 34.66 18.4623H38.0574C38.0642 18.4623 38.0744 18.4623 38.0847 18.4623C38.6134 18.4896 38.9954 18.3463 39.2513 18.0529C39.5412 17.7187 39.7083 17.1831 39.7663 16.4634V16.4532L40.7999 5.7629C40.7999 5.74585 40.7999 5.72879 40.8033 5.71174C40.8749 5.10457 40.7419 4.70888 40.4417 4.47693C40.0972 4.21087 39.5275 4.10172 38.7873 4.10172C38.7703 4.10172 38.7532 4.10513 38.7362 4.10513H34.909V4.10172C34.3257 4.10172 33.8959 4.21769 33.6332 4.45647C33.5241 4.55539 33.4422 4.6816 33.3808 4.83509ZM29.6355 17.9438C29.5536 17.8653 29.4956 17.763 29.4717 17.6504L24.0141 7.82659C23.4069 6.81351 22.8611 6.78963 22.3324 7.10345C21.9572 7.32517 21.5615 7.68674 21.1658 8.04831C20.927 8.26662 20.6883 8.48493 20.487 8.65207L19.549 9.42638L19.5422 9.42979C18.8599 9.97897 18.089 10.2757 17.3591 10.3337C16.8781 10.3747 16.4142 10.3133 15.9912 10.1529C15.558 9.9892 15.176 9.72655 14.8895 9.36839C14.5791 8.98294 14.3744 8.49175 14.3266 7.91187H14.3301C14.3198 7.77202 14.3608 7.63216 14.4563 7.51619L17.4375 3.96868C16.8099 3.95845 16.2539 4.04373 15.732 4.20746C14.9372 4.45647 14.1936 4.88626 13.3818 5.44226C13.2897 5.51389 13.1703 5.55824 13.0441 5.55824H9.60915V12.0495L9.62279 16.2007H11.6217C11.8127 16.2007 11.9969 16.2997 12.0958 16.477L14.5791 20.8057C14.9406 21.4367 15.2613 21.9825 15.6604 22.3407C16.0356 22.6783 16.5268 22.8864 17.284 22.9069C17.5671 22.9137 17.84 22.866 18.0959 22.7602C18.2528 22.6954 18.4097 22.6067 18.5632 22.4941L16.9532 19.4856C16.8099 19.2195 16.9122 18.8887 17.1783 18.7488C17.4443 18.6055 17.7752 18.7079 17.9151 18.9739L19.6649 22.2451C20.3165 22.576 20.9066 22.6783 21.4353 22.5658C21.9197 22.46 22.3767 22.1701 22.8065 21.6994L20.2858 17.7425C20.1254 17.4901 20.1971 17.1524 20.4529 16.9887C20.7053 16.8284 21.043 16.9 21.2067 17.1558L23.8606 21.3242C24.3279 21.5152 24.7747 21.5561 25.2011 21.4401C25.607 21.3276 26.0163 21.0683 26.4223 20.6454L24.0175 16.1155C23.8742 15.8494 23.9765 15.5151 24.246 15.3753C24.5121 15.232 24.8463 15.3343 24.9862 15.6038L27.4763 20.2906C27.8003 20.4782 28.1755 20.526 28.5337 20.468C28.8475 20.4168 29.1511 20.2804 29.4001 20.0859C29.6389 19.8949 29.8265 19.6493 29.9152 19.3696C30.0141 19.066 30.0039 18.7113 29.8436 18.3258L29.6355 17.9438ZM30.3586 16.9955H32.1801V5.56165C32.1801 5.548 32.1801 5.53095 32.1835 5.51731C32.1835 5.33993 32.1938 5.16938 32.2177 5.00906L30.362 3.77766C30.3518 3.77084 30.3416 3.76402 30.3313 3.7572C30.0891 3.59688 29.7992 3.39222 29.5093 3.18755C28.4553 2.45076 27.3739 1.6901 26.204 1.3831C25.5729 1.21596 24.8429 1.10681 24.0993 1.09316C23.4478 1.07952 22.7861 1.14092 22.1618 1.30465C21.79 1.40016 21.4285 1.53319 21.0942 1.71056C20.7974 1.86747 20.5211 2.05849 20.2755 2.29044L19.0339 3.76743C18.9964 3.84248 18.9418 3.90387 18.877 3.95504L15.4523 8.03467C15.5035 8.29391 15.6058 8.51222 15.7456 8.68959C15.9094 8.89084 16.1277 9.04093 16.3767 9.13644C16.6428 9.23536 16.9497 9.27288 17.2704 9.24559C17.7923 9.20125 18.3517 8.98635 18.8531 8.58385L19.7912 7.80954C20.0299 7.6117 20.2312 7.4275 20.4324 7.24671C20.8725 6.84421 21.3091 6.44511 21.773 6.16882C22.8406 5.53095 23.9049 5.51048 24.9555 7.274L24.9657 7.29106L30.3586 16.9955ZM32.3848 18.0905H30.9283C31.1261 18.6669 31.1159 19.2127 30.959 19.6971C30.7986 20.1951 30.4848 20.6181 30.0823 20.9387C29.6901 21.2491 29.2125 21.464 28.7111 21.5459C28.2233 21.6277 27.7116 21.5834 27.2341 21.3856C26.6815 21.962 26.0982 22.327 25.491 22.4941C24.8805 22.6613 24.2631 22.6272 23.6388 22.4089C23.0453 23.0672 22.3904 23.4799 21.6672 23.6334C20.9305 23.7938 20.1493 23.6812 19.3204 23.2923C19.0612 23.4936 18.7917 23.6539 18.5086 23.7699C18.1095 23.937 17.6899 24.0121 17.2499 23.9984C16.1993 23.9677 15.4932 23.6573 14.9304 23.1525C14.3915 22.6715 14.0333 22.0575 13.624 21.348L11.301 17.2957H9.49999C9.39425 17.8176 9.21346 18.261 8.94058 18.6158C8.48009 19.2093 7.80811 19.5231 6.87348 19.5026C6.86324 19.5026 6.85301 19.5026 6.84278 19.5026H3.75577C2.97805 19.6289 2.31289 19.4378 1.791 18.8341C1.32709 18.2985 1.01328 17.4287 0.876833 16.153C0.873422 16.1393 0.873422 16.1223 0.870011 16.1052L0.0581789 6.04261C-0.102141 4.95789 0.0752342 4.1904 0.51185 3.6651C0.951877 3.13639 1.61703 2.89761 2.43228 2.86009C2.45615 2.85668 2.47662 2.85668 2.5005 2.85668H6.65858V2.86009C7.44312 2.84986 8.11851 2.98289 8.63017 3.31376C9.04291 3.57982 9.33967 3.95504 9.48976 4.4667H12.8769C13.7297 3.89364 14.5245 3.44338 15.4045 3.16709C16.2709 2.89761 17.1953 2.8021 18.3039 2.93513L19.4466 1.58435C19.4671 1.55707 19.4876 1.53319 19.5149 1.50931C19.8389 1.20232 20.2005 0.949897 20.5893 0.745233C20.9987 0.530336 21.4353 0.366605 21.8924 0.247218C22.6155 0.0596099 23.3762 -0.0120223 24.1198 0.00162192C24.9623 0.0186772 25.781 0.141475 26.4871 0.325673C27.8378 0.683834 29.0044 1.49908 30.1369 2.29385C30.3893 2.47123 30.6417 2.6486 30.9419 2.84645C30.9521 2.85327 30.9624 2.86009 30.9726 2.86691L32.6167 3.96527C32.6986 3.8493 32.7941 3.74355 32.9033 3.64804C33.374 3.22507 34.046 3.017 34.9124 3.017V3.01359H38.7396C38.7532 3.01359 38.7703 3.01359 38.7839 3.017C39.7629 3.01359 40.5611 3.19096 41.1137 3.61735C41.7277 4.09148 42.0176 4.81122 41.8948 5.84477C41.8948 5.855 41.8914 5.86182 41.8914 5.87206L40.8579 16.5521C40.7828 17.5072 40.527 18.2542 40.0767 18.7727C39.5958 19.3253 38.9306 19.5982 38.0574 19.5606H34.66H34.6566C34.0699 19.5913 33.5684 19.431 33.1489 19.0967C32.8419 18.8477 32.586 18.5134 32.3848 18.0905ZM4.77909 13.9392C5.18841 13.9392 5.51929 14.2701 5.51929 14.6794C5.51929 15.0887 5.18841 15.4196 4.77909 15.4196C4.36976 15.4196 4.03889 15.0887 4.03889 14.6794C4.03889 14.2701 4.36976 13.9392 4.77909 13.9392ZM36.9965 13.9392C37.4059 13.9392 37.7367 14.2701 37.7367 14.6794C37.7367 15.0887 37.4059 15.4196 36.9965 15.4196C36.5872 15.4196 36.2563 15.0887 36.2563 14.6794C36.2563 14.2701 36.5872 13.9392 36.9965 13.9392ZM8.5142 10.7874L8.49373 5.01247C8.49373 5.00224 8.49373 4.992 8.49373 4.97836C8.43574 4.61679 8.27883 4.3746 8.04688 4.22451C7.72965 4.01985 7.25551 3.9414 6.67222 3.94822H6.6654V3.95163H2.50391C2.49709 3.95163 2.49026 3.95163 2.48344 3.95163C1.96837 3.97551 1.5761 4.0983 1.35438 4.36437C1.11561 4.64749 1.03374 5.13868 1.14631 5.89934C1.14972 5.9164 1.14972 5.93004 1.14972 5.9471L1.96155 16.02V16.037C2.0707 17.0808 2.29583 17.7494 2.61306 18.1178C2.86548 18.4111 3.21 18.493 3.62274 18.4179C3.65344 18.4111 3.68755 18.4077 3.71825 18.4077V18.4043H6.83937C6.85983 18.4043 6.8803 18.4043 6.89735 18.4077C7.44994 18.4179 7.83198 18.2542 8.07076 17.9438C8.35046 17.5822 8.48691 17.016 8.50737 16.286H8.50396V10.7874H8.5142Z" fill="#897555"/>
</svg>
